<?xml version="1.0" encoding="utf-8"?>
<!-- Generator: Adobe Illustrator 16.0.0, SVG Export Plug-In . SVG Version: 6.00 Build 0)  -->
<!DOCTYPE svg PUBLIC "-//W3C//DTD SVG 1.1//EN" "http://www.w3.org/Graphics/SVG/1.1/DTD/svg11.dtd">
<svg version="1.1" id="Layer_1" xmlns="http://www.w3.org/2000/svg" xmlns:xlink="http://www.w3.org/1999/xlink" x="0px" y="0px"
	 width="501.042px" height="221.625px" viewBox="0 0 501.042 221.625" enable-background="new 0 0 501.042 221.625"
	 xml:space="preserve">
<image display="none" overflow="visible" width="1366" height="768" xlink:href="77BF522C.jpg"  transform="matrix(1 0 0 1 -417.9585 -125.375)">
</image>
<rect x="91.042" y="34.294" display="none" stroke="#FFFFFF" stroke-width="3" stroke-miterlimit="10" width="370.667" height="150"/>
<ellipse fill="#FFFFFF" cx="250.541" cy="110.625" rx="250" ry="110.385"/>
<ellipse fill="#FFFFFF" stroke="#000000" stroke-width="3" stroke-miterlimit="10" cx="251.351" cy="110.522" rx="242.086" ry="102.152"/>
<rect x="143.209" y="71.792" fill="none" width="281.001" height="187.666"/>
<text transform="matrix(1 0 0 1 143.2095 111.1709)" display="none" font-family="'Arial-BoldMT'" font-size="55">A</text>
<g display="none">
	<text transform="matrix(0.7 0 0 0.7 184.3745 111.2925)" display="inline" font-family="'Arial-BoldMT'" font-size="68">llen</text>
	<text transform="matrix(1 0 0 1 308.6509 111.2925)" display="inline" font-family="'Arial-BoldMT'" font-size="68"> </text>
	<text transform="matrix(0.7 0 0 0.7 327.5435 111.2925)" display="inline" font-family="'Arial-BoldMT'" font-size="68">s</text>
</g>
<polyline fill="#CA2039" points="360.993,52.428 354.845,72.51 362.427,72.51 372.571,52.428 "/>
<g display="none">
	<text transform="matrix(1 0 0 1 163.708 154.6255)" display="inline" font-family="'Arial-BoldMT'" font-size="52">S</text>
	<text transform="matrix(0.7 0 0 0.7 198.3916 154.6255)" display="inline" font-family="'Arial-BoldMT'" font-size="52">hoes</text>
</g>
<polygon fill="#CA2039" points="161.198,99.149 161.198,54.887 146.581,54.887 146.581,110.352 160.378,110.352 161.198,110.352 
	185.925,110.352 185.925,99.149 "/>
<polygon fill="#CA2039" points="208.603,99.149 208.603,54.887 193.985,54.887 193.985,110.352 207.783,110.352 208.603,110.352 
	233.33,110.352 233.33,99.149 "/>
<polygon fill="#CA2039" points="282.304,66.632 282.304,54.883 253.616,54.883 253.616,54.887 241.526,54.887 241.526,110.352 
	255.324,110.352 256.144,110.352 280.87,110.352 280.87,99.149 256.144,99.149 256.144,85.761 279.369,85.761 279.369,74.423 
	256.144,74.423 256.144,66.632 "/>
<polygon fill="#CA2039" points="207.373,128.794 207.373,149.969 187.154,149.969 187.154,128.794 172.673,128.794 172.673,186.171 
	187.154,186.171 187.154,161.171 207.373,161.171 207.373,186.171 221.854,186.171 221.854,128.794 "/>
<polygon fill="#CA2039" points="338.247,141.635 338.247,128.657 313.384,128.657 308.739,128.657 298.767,128.657 298.767,185.897 
	310.516,185.897 313.384,185.897 338.247,185.897 338.247,174.832 313.384,174.832 313.384,161.717 336.335,161.717 
	336.335,149.832 313.384,149.832 313.384,141.635 "/>
<path fill="#CA2039" d="M122.263,108.848h15.984l-23.088-63.661H97.263l-22.951,63.661h16.394l3.72-11.338h23.385L122.263,108.848z
	 M98.28,85.761l6.79-20.696l8.127,20.696H98.28z"/>
<polygon fill="#CA2039" points="330.188,54.887 330.188,85.978 310.173,54.887 306.828,54.887 306.587,54.887 292.483,54.887 
	292.483,110.625 306.828,110.625 306.828,73.889 330.188,110.352 343.165,110.352 343.165,54.887 "/>
<path fill="#CA2039" d="M260.038,128.384c-15.354,0-27.802,13.09-27.802,29.235c0,16.146,12.447,29.235,27.802,29.235
	c15.355,0,27.802-13.089,27.802-29.235C287.84,141.474,275.393,128.384,260.038,128.384z M260.105,176.062
	c-7.243,0-13.114-8.257-13.114-18.442c0-10.185,5.871-18.442,13.114-18.442s13.115,8.258,13.115,18.442
	C273.22,167.805,267.348,176.062,260.105,176.062z"/>
<path display="none" opacity="0.5" d="M182.583,116.044c-10.47,0-18.958,5.727-18.958,12.792c0,7.064,8.488,12.791,18.958,12.791
	c10.471,0,18.958-5.727,18.958-12.791C201.541,121.771,193.053,116.044,182.583,116.044z M184.077,131.577
	c-5.311-0.364-9.502-2.35-9.359-4.437c0.143-2.086,4.564-3.483,9.877-3.119c5.312,0.364,9.502,2.35,9.359,4.437
	C193.811,130.543,189.389,131.94,184.077,131.577z"/>
<g display="none">
	
		<ellipse transform="matrix(0.0684 -0.9977 0.9977 0.0684 19.7318 310.9616)" display="inline" fill="none" cx="176.372" cy="144.915" rx="3.787" ry="9.641"/>
	<path display="inline" opacity="0.5" d="M178.125,131.086c-6.395,0-12.037,2.142-15.471,5.414h1.262v15.826
		c3.474,2.658,8.544,4.343,14.209,4.343c10.47,0,18.958-5.727,18.958-12.792C197.083,136.813,188.595,131.086,178.125,131.086z
		 M176.113,148.693c-5.312-0.364-9.502-2.35-9.359-4.437c0.144-2.086,4.565-3.483,9.877-3.12c5.311,0.364,9.502,2.35,9.359,4.437
		C185.847,147.661,181.425,149.057,176.113,148.693z"/>
</g>
<g>
	<path fill="none" d="M113.185,165.759c-0.234,3.421,6.636,6.676,15.343,7.272c8.709,0.597,15.958-1.693,16.192-5.113
		c0.192-2.797-4.37-5.482-10.798-6.695c-0.948-0.11-1.878-0.251-2.794-0.418c-0.575-0.065-1.157-0.12-1.75-0.161
		C120.669,160.049,113.42,162.338,113.185,165.759z"/>
	<path fill="none" d="M141.687,145.074c8.708,0.596,15.958-1.694,16.193-5.114c0.233-3.421-6.636-6.676-15.344-7.273
		c-8.709-0.596-15.958,1.693-16.191,5.113c-0.192,2.798,4.37,5.482,10.798,6.695c0.948,0.11,1.878,0.251,2.795,0.418
		C140.511,144.978,141.093,145.033,141.687,145.074z"/>
	<path opacity="0.5" d="M131.127,160.805c0.917,0.167,1.847,0.308,2.794,0.418C133.023,161.053,132.09,160.913,131.127,160.805z"/>
	<path opacity="0.5" d="M137.142,144.495c0.898,0.17,1.832,0.31,2.795,0.418C139.02,144.747,138.09,144.605,137.142,144.495z"/>
</g>
<g>
	<path opacity="0.5" d="M159.763,138.826h-0.03c0.011,0.015,0.02,0.028,0.03,0.042V138.826z"/>
	<path opacity="0.6" d="M159.763,138.826h-0.03c0.011,0.015,0.02,0.028,0.03,0.042V138.826z"/>
</g>
<g>
	<polygon opacity="0.5" fill="#CA2039" points="108.526,165.414 108.534,165.424 108.534,165.414 	"/>
	<path fill="#CA2039" d="M159.915,156.206c-3.849-5.5-11.121-9.679-19.978-11.293c-0.963-0.108-1.896-0.248-2.795-0.418
		c-6.428-1.213-10.99-3.897-10.798-6.695c0.233-3.42,7.482-5.709,16.191-5.113c7.161,0.491,14.826,3.266,17.197,6.14h0.03v-13.962
		c-5.478-3.26-12.648-5.253-20.527-5.253c-17.164,0-31.078,9.389-31.078,20.971c0,3.199,1.092,6.218,2.99,8.93
		c3.85,5.5,11.122,9.678,19.978,11.293c0.963,0.108,1.896,0.248,2.794,0.418c6.429,1.212,10.99,3.897,10.798,6.695
		c-0.234,3.42-7.483,5.71-16.192,5.113c-7.2-0.493-16.957-4.351-19.994-7.607v13.563c5.695,4.358,14.007,7.12,23.294,7.12
		c17.163,0,31.078-9.389,31.078-20.971C162.905,161.937,161.813,158.918,159.915,156.206z"/>
</g>
<path fill="#CA2039" d="M391.385,160.156c-3.302-4.736-9.539-8.334-17.137-9.724c-0.826-0.093-1.627-0.213-2.396-0.36
	c-5.516-1.044-9.428-3.355-9.263-5.764c0.2-2.945,6.418-4.917,13.89-4.403c6.143,0.423,12.716,2.812,14.75,5.286h0.026V133.17
	c-4.699-2.807-10.85-4.523-17.607-4.523c-14.722,0-26.657,8.084-26.657,18.057c0,2.754,0.938,5.354,2.565,7.689
	c3.301,4.736,9.538,8.334,17.136,9.724c0.826,0.093,1.627,0.213,2.396,0.36c5.516,1.044,9.428,3.355,9.264,5.764
	c-0.2,2.946-6.418,4.917-13.89,4.403c-6.175-0.424-14.545-3.746-17.149-6.55v11.678c4.885,3.752,12.014,6.131,19.979,6.131
	c14.722,0,26.657-8.084,26.657-18.057C393.95,165.091,393.013,162.491,391.385,160.156z"/>
<path fill="#CA2039" d="M422.328,85.156c-3.302-4.736-9.538-8.334-17.137-9.724c-0.826-0.093-1.626-0.213-2.396-0.36
	c-5.515-1.044-9.428-3.355-9.263-5.764c0.2-2.945,6.418-4.917,13.89-4.403c6.143,0.423,12.716,2.812,14.751,5.286h0.025V58.17
	c-4.699-2.807-10.85-4.523-17.607-4.523c-14.722,0-26.656,8.084-26.656,18.057c0,2.754,0.937,5.354,2.564,7.689
	c3.301,4.736,9.538,8.334,17.137,9.724c0.826,0.093,1.626,0.213,2.396,0.36c5.515,1.044,9.428,3.355,9.263,5.764
	c-0.2,2.946-6.418,4.917-13.89,4.403c-6.175-0.424-14.545-3.746-17.149-6.55v11.678c4.885,3.752,12.014,6.131,19.979,6.131
	c14.723,0,26.657-8.084,26.657-18.057C424.892,90.091,423.956,87.491,422.328,85.156z"/>
</svg>
