<?xml version="1.0" encoding="utf-8"?>
<!-- Generator: Adobe Illustrator 16.0.0, SVG Export Plug-In . SVG Version: 6.00 Build 0)  -->
<!DOCTYPE svg PUBLIC "-//W3C//DTD SVG 1.1//EN" "http://www.w3.org/Graphics/SVG/1.1/DTD/svg11.dtd">
<svg version="1.1" id="Layer_1" xmlns="http://www.w3.org/2000/svg" xmlns:xlink="http://www.w3.org/1999/xlink" x="0px" y="0px"
	 width="1596px" height="166.492px" viewBox="0 0 1596 166.492" enable-background="new 0 0 1596 166.492" xml:space="preserve">
<g>
	<g>
		<path display="none" fill="#B32B42" d="M250-3.608c43.439,25.081,274,100,578.42,87.101S1374,2.392,1374,2.392v-20
			c0,0-172,66-544,86s-570-86-570-86L250-3.608z"/>
		<g>
			<path display="none" fill="#B32B42" d="M798,62.392c-0.687,0-1.375,0-2.062,0c-430.143-0.035-952.395-11.033-968.366-137
				c-0.379,2.986-0.572,5.986-0.572,9c0,130.173,528.924,145.959,969.313,146c0.563,0,1.125,0,1.688,0c0.708,0,1.417,0,2.125,0
				c440.349-0.076,983.875-23.87,983.875-154c0-3.014-0.193-6.014-0.572-9c-15.981,126.053-553.904,144.966-984.24,145
				C798.792,62.392,798.396,62.392,798,62.392z"/>
		</g>
		<g>
			<path display="none" fill="#B32B42" d="M795.601,81.037c0,0-28.625,29.377-33.334,33.264c-4.708,3.886-20.66,14.36-32.184,19.75
				c-15.728,7.354-32.184,13.945-32.184,13.945l-9.249-16.223c0,0,18.597-5.319,35.803-12.024
				c13.411-5.226,20.95-9.166,27.747-12.749c6.799-3.581,38.173-30.788,38.173-30.788L795.601,81.037z"/>
			<path fill="#B32B42" d="M794.37,82.318l-65.581,7.761c0,0-18.089,0.646-24.25-2.351c-6.663-3.239-11.115-3.25-16.09-12.089
				c-2.465-4.381-3.156-11.813-2.656-17.518c0,0,1.038-7.64,1.544-6.774c0.417,0.71,1.188,6.307,2.575,9.593
				c4.509,10.672,10.983,11.764,17.329,14.395c6.459,2.677,10.117,2.724,18.646,3.133c8.531,0.409,69.544-6.13,69.544-6.13
				L794.37,82.318z"/>
			<path fill="#B32B42" d="M687.494,42.49c2.497-13.073,14.326-15.022,30.02-13.355c12.75,1.771,34.037,14.056,50.192,26.032
				c12.174,9.024,17.945,11.91,28.715,16.326l-1.095,10.31c0,0-11.047-0.319-31.411-13.569c-14.842-9.658-34.63-21.045-49.39-24.697
				c-13.762-1.462-23.164-1.157-27.271,10.001c-0.923,2.507-1.376,3.298-1.588,5.833L687.494,42.49z"/>
			<path fill="#B32B42" d="M806.978,82.44l65.327,9.259c0,0,18.041,1.061,24.269-1.792c6.735-3.086,11.17-2.995,16.347-11.718
				c2.564-4.323,3.416-11.737,3.048-17.453c0,0-0.867-7.66-1.395-6.807c-0.432,0.701-1.332,6.278-2.794,9.531
				c-4.751,10.568-11.251,11.511-17.655,13.996c-6.519,2.529-10.116,2.487-18.653,2.702c-8.538,0.213-69.325-7.721-69.325-7.721
				L806.978,82.44z"/>
			<path fill="#B32B42" d="M914.617,45.071c-2.197-13.125-13.98-15.345-29.707-14.037c-12.788,1.479-34.289,13.27-50.714,24.875
				C821.82,64.652,816.044,67.4,805.178,71.57l0.859,10.331c0,0,10.991-0.061,31.651-12.842
				c15.059-9.317,35.072-20.247,49.911-23.561c13.794-1.147,23.171-0.626,27.021,10.623c0.865,2.527,1.295,3.33,1.447,5.867
				L914.617,45.071z"/>
			<path fill="#B32B42" d="M808.084,69.449c0.172,2.12-0.311,4.343-0.311,6.637c0,2.294,0.483,4.519,0.311,6.638
				c-2.088,1.278-4.785-0.048-7.734-0.048c-2.947,0-5.646,1.326-7.733,0.048c-0.17-2.119,0.43-4.344,0.43-6.638
				c0-2.294-0.6-4.518-0.43-6.637c2.088-1.278,4.786-0.551,7.733-0.551C803.299,68.898,805.997,68.171,808.084,69.449z"/>
			<path fill="#B32C43" d="M806.489,80.275c0,0,28.289,32.284,32.966,36.529c4.679,4.247,17.039,13.279,28.607,19.025
				c1.947,0.967,2.208,1.604,7.875,1.813c4.643,0.171,3.961-0.551,9.186,0.454c5.439,1.046,22.619,8.23,22.619,8.23l2.909-5.93
				l-21.964-9.817c0,0-0.813,0.188-3.125-3c-2.059-2.837-4.604-4.389-7.809-5.697c-13.488-5.511-21.045-9.737-27.858-13.582
				c-6.813-3.845-38.98-33.579-38.98-33.579L806.489,80.275z"/>
			<path fill="#B32C43" d="M794.652,80.275c0,0-28.289,32.284-32.966,36.529c-4.679,4.247-17.039,13.279-28.607,19.025
				c-1.947,0.967-2.208,1.604-7.875,1.813c-4.643,0.171-3.961-0.551-9.186,0.454c-5.439,1.046-22.619,8.23-22.619,8.23l-2.909-5.93
				l21.964-9.817c0,0,0.813,0.188,3.125-3c2.059-2.837,4.604-4.389,7.809-5.697c13.488-5.511,21.045-9.737,27.858-13.582
				c6.813-3.845,38.98-33.579,38.98-33.579"/>
			<rect x="799" y="69.392" fill="#B32B42" width="797" height="12"/>
			<rect x="2" y="69.392" fill="#B32B42" width="797" height="12"/>
		</g>
		<g>
			
				<linearGradient id="SVGID_1_" gradientUnits="userSpaceOnUse" x1="255.687" y1="238.0449" x2="326.7809" y2="163.0786" gradientTransform="matrix(1.0819 0.3166 -0.2301 1.1858 476.9098 -215.0394)">
				<stop  offset="0" style="stop-color:#575757"/>
				<stop  offset="0.2945" style="stop-color:#C9C9C9"/>
				<stop  offset="0.5276" style="stop-color:#A9A9A9"/>
				<stop  offset="0.7055" style="stop-color:#E3E3E3"/>
				<stop  offset="1" style="stop-color:#000000"/>
			</linearGradient>
			<path fill="url(#SVGID_1_)" d="M794.652,80.244c0,0-28.289,32.284-32.966,36.529c-4.679,4.247-17.04,13.279-28.607,19.025
				c-1.947,0.967-2.167,1.635-7.875,1.813c-4.644,0.144-3.96-0.551-9.186,0.454c-5.439,1.046-22.619,8.23-22.619,8.23l-2.909-5.93
				l21.964-9.817c0,0,0.813,0.188,3.125-3c2.059-2.837,4.604-4.389,7.808-5.697c13.489-5.511,21.045-9.737,27.859-13.582
				c6.813-3.845,38.98-33.579,38.98-33.579"/>
			
				<linearGradient id="SVGID_2_" gradientUnits="userSpaceOnUse" x1="376.2236" y1="183.6543" x2="447.4171" y2="108.583" gradientTransform="matrix(1.0569 0.2548 -0.2554 1.0592 347.0746 -149.0966)">
				<stop  offset="0" style="stop-color:#575757"/>
				<stop  offset="0.2945" style="stop-color:#C9C9C9"/>
				<stop  offset="0.5276" style="stop-color:#A9A9A9"/>
				<stop  offset="0.7055" style="stop-color:#E3E3E3"/>
				<stop  offset="1" style="stop-color:#000000"/>
			</linearGradient>
			<path display="none" fill="url(#SVGID_2_)" d="M795.601,81.037c0,0-28.625,29.377-33.334,33.264
				c-4.708,3.886-20.66,14.36-32.184,19.75c-15.728,7.354-32.184,13.945-32.184,13.945l-9.249-16.223
				c0,0,18.597-5.319,35.803-12.024c13.411-5.226,20.95-9.166,27.747-12.749c6.799-3.581,38.173-30.788,38.173-30.788
				L795.601,81.037z"/>
			
				<linearGradient id="SVGID_3_" gradientUnits="userSpaceOnUse" x1="301.1675" y1="225.9014" x2="372.2607" y2="150.9357" gradientTransform="matrix(-1.0819 0.3166 0.2301 1.1858 1176.2308 -215.0394)">
				<stop  offset="0" style="stop-color:#575757"/>
				<stop  offset="0.2945" style="stop-color:#C9C9C9"/>
				<stop  offset="0.5276" style="stop-color:#A9A9A9"/>
				<stop  offset="0.7055" style="stop-color:#E3E3E3"/>
				<stop  offset="1" style="stop-color:#000000"/>
			</linearGradient>
			<path fill="url(#SVGID_3_)" d="M806.489,80.244c0,0,28.289,32.284,32.966,36.529c4.679,4.247,17.04,13.279,28.607,19.025
				c1.947,0.967,2.167,1.635,7.875,1.813c4.644,0.144,3.96-0.551,9.186,0.454c5.439,1.046,22.619,8.23,22.619,8.23l2.909-5.93
				l-21.964-9.817c0,0-0.813,0.188-3.125-3c-2.059-2.837-4.604-4.389-7.808-5.697c-13.489-5.511-21.045-9.737-27.859-13.582
				c-6.813-3.845-38.98-33.579-38.98-33.579L806.489,80.244z"/>
			
				<linearGradient id="SVGID_4_" gradientUnits="userSpaceOnUse" x1="998.7168" y1="79.7549" x2="1109.2441" y2="79.7549" gradientTransform="matrix(-0.9944 -0.1056 -0.1056 0.9944 1796.1123 106.6302)">
				<stop  offset="0" style="stop-color:#0D0D0D"/>
				<stop  offset="0.4172" style="stop-color:#6E6E6E"/>
				<stop  offset="0.8405" style="stop-color:#F0F0F0"/>
				<stop  offset="0.9202" style="stop-color:#A6A6A6"/>
				<stop  offset="1" style="stop-color:#0A0A0A"/>
			</linearGradient>
			<path fill="url(#SVGID_4_)" d="M794.37,82.318l-65.581,7.761c0,0-18.089,0.646-24.25-2.351
				c-6.663-3.239-11.115-3.25-16.09-12.089c-2.465-4.381-3.156-11.813-2.656-17.518c0,0,1.038-7.64,1.544-6.774
				c0.417,0.71,1.188,6.307,2.575,9.593c4.509,10.672,10.983,11.764,17.329,14.395c6.459,2.677,10.117,2.724,18.646,3.133
				c8.531,0.409,69.544-6.13,69.544-6.13L794.37,82.318z"/>
			
				<linearGradient id="SVGID_5_" gradientUnits="userSpaceOnUse" x1="997.8223" y1="58.9248" x2="1109.2441" y2="58.9248" gradientTransform="matrix(-0.9944 -0.1056 -0.1056 0.9944 1796.1123 106.6302)">
				<stop  offset="0" style="stop-color:#1A1A1A"/>
				<stop  offset="0.1166" style="stop-color:#5C5C5C"/>
				<stop  offset="0.5644" style="stop-color:#9E9E9E"/>
				<stop  offset="0.8589" style="stop-color:#F7F7F7"/>
				<stop  offset="0.9387" style="stop-color:#919191"/>
				<stop  offset="1" style="stop-color:#1A1A1A"/>
			</linearGradient>
			<path fill="url(#SVGID_5_)" d="M687.494,42.49c2.497-13.073,14.326-15.022,30.02-13.355c12.75,1.771,34.037,14.056,50.192,26.032
				c12.174,9.024,17.945,11.91,28.715,16.326l-1.095,10.31c0,0-11.047-0.319-31.411-13.569c-14.842-9.658-34.63-21.045-49.39-24.697
				c-13.762-1.462-23.164-1.157-27.271,10.001c-0.923,2.507-1.376,3.298-1.588,5.833L687.494,42.49z"/>
			
				<linearGradient id="SVGID_6_" gradientUnits="userSpaceOnUse" x1="1037.6025" y1="60.5664" x2="1148.0127" y2="60.5664" gradientTransform="matrix(0.9966 -0.0829 0.0829 0.9966 -232.2713 106.2505)">
				<stop  offset="0" style="stop-color:#0D0D0D"/>
				<stop  offset="0.4172" style="stop-color:#6E6E6E"/>
				<stop  offset="0.8405" style="stop-color:#F0F0F0"/>
				<stop  offset="0.9202" style="stop-color:#A6A6A6"/>
				<stop  offset="1" style="stop-color:#0A0A0A"/>
			</linearGradient>
			<path fill="url(#SVGID_6_)" d="M806.978,82.44l65.327,9.259c0,0,18.041,1.061,24.269-1.792
				c6.735-3.086,11.17-2.995,16.347-11.718c2.564-4.323,3.416-11.737,3.048-17.453c0,0-0.867-7.66-1.395-6.807
				c-0.432,0.701-1.332,6.278-2.794,9.531c-4.751,10.568-11.251,11.511-17.655,13.996c-6.519,2.529-10.116,2.487-18.653,2.702
				c-8.538,0.213-69.325-7.721-69.325-7.721L806.978,82.44z"/>
			
				<linearGradient id="SVGID_7_" gradientUnits="userSpaceOnUse" x1="1036.709" y1="39.7354" x2="1148.0127" y2="39.7354" gradientTransform="matrix(0.9966 -0.0829 0.0829 0.9966 -232.2713 106.2505)">
				<stop  offset="0" style="stop-color:#1A1A1A"/>
				<stop  offset="0.1166" style="stop-color:#5C5C5C"/>
				<stop  offset="0.5644" style="stop-color:#9E9E9E"/>
				<stop  offset="0.8589" style="stop-color:#F7F7F7"/>
				<stop  offset="0.9387" style="stop-color:#919191"/>
				<stop  offset="1" style="stop-color:#1A1A1A"/>
			</linearGradient>
			<path fill="url(#SVGID_7_)" d="M914.617,45.071c-2.197-13.125-13.98-15.345-29.707-14.037
				c-12.788,1.479-34.289,13.27-50.714,24.875C821.82,64.652,816.044,67.4,805.178,71.57l0.859,10.331
				c0,0,10.991-0.061,31.651-12.842c15.059-9.317,35.072-20.247,49.911-23.561c13.794-1.147,23.171-0.626,27.021,10.623
				c0.865,2.527,1.295,3.33,1.447,5.867L914.617,45.071z"/>
			
				<linearGradient id="SVGID_8_" gradientUnits="userSpaceOnUse" x1="973.5342" y1="83.1162" x2="973.4542" y2="68.4063" gradientTransform="matrix(-1 0 0 1 1773.8496 0)">
				<stop  offset="0" style="stop-color:#858585"/>
				<stop  offset="0.4049" style="stop-color:#333333"/>
				<stop  offset="0.5951" style="stop-color:#A9A9A9"/>
				<stop  offset="0.7362" style="stop-color:#F5F5F5"/>
				<stop  offset="0.8528" style="stop-color:#A6A6A6"/>
				<stop  offset="1" style="stop-color:#1A1A1A"/>
			</linearGradient>
			<path fill="url(#SVGID_8_)" d="M808.084,69.449c0.172,2.12-0.311,4.343-0.311,6.637c0,2.294,0.483,4.519,0.311,6.638
				c-2.088,1.278-4.785-0.048-7.734-0.048c-2.947,0-5.646,1.326-7.733,0.048c-0.17-2.119,0.43-4.344,0.43-6.638
				c0-2.294-0.6-4.518-0.43-6.637c2.088-1.278,4.786-0.551,7.733-0.551C803.299,68.898,805.997,68.171,808.084,69.449z"/>
		</g>
	</g>
</g>
<g display="none">
	<g display="inline">
		<rect x="902.678" y="67.294" fill="#BC752D" width="461.368" height="19.243"/>
		
			<linearGradient id="SVGID_9_" gradientUnits="userSpaceOnUse" x1="991.3242" y1="508.8799" x2="991.3242" y2="50.9416" gradientTransform="matrix(0 -1 -1 0 1415.0205 1068.2393)">
			<stop  offset="0" style="stop-color:#D1D1D1"/>
			<stop  offset="0.0388" style="stop-color:#D5D5D5"/>
			<stop  offset="0.0759" style="stop-color:#E0E0E0"/>
			<stop  offset="0.1123" style="stop-color:#F4F4F4"/>
			<stop  offset="0.1288" style="stop-color:#FFFFFF"/>
			<stop  offset="0.5031" style="stop-color:#0D0D0D"/>
			<stop  offset="0.5467" style="stop-color:#444444"/>
			<stop  offset="0.5912" style="stop-color:#757575"/>
			<stop  offset="0.6368" style="stop-color:#A0A0A0"/>
			<stop  offset="0.6829" style="stop-color:#C2C2C2"/>
			<stop  offset="0.7295" style="stop-color:#DDDDDD"/>
			<stop  offset="0.7769" style="stop-color:#F0F0F0"/>
			<stop  offset="0.8255" style="stop-color:#FBFBFB"/>
			<stop  offset="0.8773" style="stop-color:#FFFFFF"/>
			<stop  offset="1" style="stop-color:#BABABA"/>
		</linearGradient>
		<rect x="902.678" y="67.294" fill="url(#SVGID_9_)" width="461.367" height="19.243"/>
	</g>
	<g display="inline">
		<g>
			<path fill="#BC752D" d="M1128.109,81.038c0,0-28.626,29.377-33.334,33.264c-4.709,3.886-20.66,14.36-32.184,19.75
				c-15.729,7.354-32.184,13.945-32.184,13.945l-9.25-16.223c0,0,18.598-5.319,35.804-12.024
				c13.411-5.226,20.95-9.166,27.747-12.749c6.799-3.581,38.173-30.788,38.173-30.788L1128.109,81.038z"/>
			<path fill="#BC752D" d="M1138.872,80.588c0,0,28.289,32.284,32.966,36.529c4.68,4.247,20.609,15.597,32.177,21.343
				c15.787,7.841,32.337,14.805,32.337,14.805l9.861-18.53c0,0-18.764-5.471-36.075-12.54c-13.489-5.511-21.046-9.737-27.858-13.582
				c-6.813-3.845-38.98-33.579-38.98-33.579L1138.872,80.588z"/>
			<path fill="#BC752D" d="M1126.879,82.318l-65.582,7.761c0,0-18.089,0.646-24.25-2.351c-6.662-3.239-11.115-3.25-16.09-12.089
				c-2.465-4.381-3.155-11.813-2.656-17.518c0,0,1.039-7.64,1.545-6.774c0.417,0.71,1.188,6.307,2.575,9.593
				c4.509,10.672,10.983,11.764,17.329,14.395c6.459,2.677,10.117,2.724,18.646,3.133c8.531,0.409,69.544-6.13,69.544-6.13
				L1126.879,82.318z"/>
			<path fill="#BC752D" d="M1020.002,42.491c2.497-13.073,14.326-15.022,30.02-13.355c12.75,1.771,34.037,14.056,50.192,26.032
				c12.174,9.024,17.945,11.91,28.715,16.326l-1.095,10.31c0,0-11.047-0.319-31.411-13.569c-14.843-9.658-34.63-21.045-49.39-24.697
				c-13.762-1.462-23.164-1.157-27.271,10.001c-0.923,2.507-1.376,3.298-1.589,5.833L1020.002,42.491z"/>
			<path fill="#BC752D" d="M1139.486,82.44l65.327,9.259c0,0,18.04,1.061,24.27-1.792c6.735-3.086,11.17-2.995,16.347-11.718
				c2.564-4.323,3.416-11.737,3.047-17.453c0,0-0.866-7.66-1.394-6.807c-0.433,0.701-1.332,6.278-2.794,9.531
				c-4.752,10.568-11.252,11.511-17.655,13.996c-6.52,2.529-10.116,2.487-18.653,2.702c-8.538,0.213-69.325-7.721-69.325-7.721
				L1139.486,82.44z"/>
			<path fill="#BC752D" d="M1247.125,45.072c-2.197-13.125-13.98-15.345-29.706-14.037c-12.788,1.479-34.289,13.27-50.714,24.875
				c-12.377,8.743-18.152,11.491-29.02,15.661l0.859,10.331c0,0,10.99-0.061,31.651-12.842c15.06-9.317,35.072-20.247,49.911-23.561
				c13.794-1.147,23.17-0.626,27.02,10.623c0.865,2.527,1.295,3.33,1.447,5.867L1247.125,45.072z"/>
			<path fill="#BC752D" d="M1140.593,69.45c0.172,2.12-0.312,4.343-0.312,6.637c0,2.294,0.483,4.519,0.312,6.638
				c-2.088,1.278-4.785-0.048-7.734-0.048c-2.947,0-5.646,1.326-7.733,0.048c-0.17-2.119,0.43-4.344,0.43-6.638
				c0-2.294-0.6-4.518-0.43-6.637c2.088-1.278,4.786-0.551,7.733-0.551C1135.808,68.898,1138.505,68.172,1140.593,69.45z"/>
		</g>
		<g>
			
				<linearGradient id="SVGID_10_" gradientUnits="userSpaceOnUse" x1="673.5469" y1="112.1304" x2="744.7406" y2="37.0587" gradientTransform="matrix(1.0569 0.2548 -0.2554 1.0592 347.0746 -149.0966)">
				<stop  offset="0" style="stop-color:#575757"/>
				<stop  offset="0.2945" style="stop-color:#C9C9C9"/>
				<stop  offset="0.5276" style="stop-color:#A9A9A9"/>
				<stop  offset="0.7055" style="stop-color:#E3E3E3"/>
				<stop  offset="1" style="stop-color:#000000"/>
			</linearGradient>
			<path fill="url(#SVGID_10_)" d="M1128.109,81.038c0,0-28.626,29.377-33.334,33.264c-4.709,3.886-20.66,14.36-32.184,19.75
				c-15.729,7.354-32.184,13.945-32.184,13.945l-9.25-16.223c0,0,18.598-5.319,35.804-12.024
				c13.411-5.226,20.95-9.166,27.747-12.749c6.799-3.581,38.173-30.788,38.173-30.788L1128.109,81.038z"/>
			
				<linearGradient id="SVGID_11_" gradientUnits="userSpaceOnUse" x1="8.3887" y1="301.9844" x2="79.5823" y2="226.9129" gradientTransform="matrix(-1.0819 0.3166 0.2301 1.1858 1176.2308 -215.0394)">
				<stop  offset="0" style="stop-color:#575757"/>
				<stop  offset="0.2945" style="stop-color:#C9C9C9"/>
				<stop  offset="0.5276" style="stop-color:#A9A9A9"/>
				<stop  offset="0.7055" style="stop-color:#E3E3E3"/>
				<stop  offset="1" style="stop-color:#000000"/>
			</linearGradient>
			<path fill="url(#SVGID_11_)" d="M1138.872,80.588c0,0,28.289,32.284,32.966,36.529c4.68,4.247,20.609,15.597,32.177,21.343
				c15.787,7.841,32.337,14.805,32.337,14.805l9.861-18.53c0,0-18.764-5.471-36.075-12.54c-13.489-5.511-21.046-9.737-27.858-13.582
				c-6.813-3.845-38.98-33.579-38.98-33.579L1138.872,80.588z"/>
			
				<linearGradient id="SVGID_12_" gradientUnits="userSpaceOnUse" x1="668.0645" y1="44.6416" x2="778.5918" y2="44.6416" gradientTransform="matrix(-0.9944 -0.1056 -0.1056 0.9944 1796.1123 106.6302)">
				<stop  offset="0" style="stop-color:#0D0D0D"/>
				<stop  offset="0.4172" style="stop-color:#6E6E6E"/>
				<stop  offset="0.8405" style="stop-color:#F0F0F0"/>
				<stop  offset="0.9202" style="stop-color:#A6A6A6"/>
				<stop  offset="1" style="stop-color:#0A0A0A"/>
			</linearGradient>
			<path fill="url(#SVGID_12_)" d="M1126.879,82.318l-65.582,7.761c0,0-18.089,0.646-24.25-2.351
				c-6.662-3.239-11.115-3.25-16.09-12.089c-2.465-4.381-3.155-11.813-2.656-17.518c0,0,1.039-7.64,1.545-6.774
				c0.417,0.71,1.188,6.307,2.575,9.593c4.509,10.672,10.983,11.764,17.329,14.395c6.459,2.677,10.117,2.724,18.646,3.133
				c8.531,0.409,69.544-6.13,69.544-6.13L1126.879,82.318z"/>
			
				<linearGradient id="SVGID_13_" gradientUnits="userSpaceOnUse" x1="667.1699" y1="23.812" x2="778.5913" y2="23.812" gradientTransform="matrix(-0.9944 -0.1056 -0.1056 0.9944 1796.1123 106.6302)">
				<stop  offset="0" style="stop-color:#1A1A1A"/>
				<stop  offset="0.1166" style="stop-color:#5C5C5C"/>
				<stop  offset="0.5644" style="stop-color:#9E9E9E"/>
				<stop  offset="0.8589" style="stop-color:#F7F7F7"/>
				<stop  offset="0.9387" style="stop-color:#919191"/>
				<stop  offset="1" style="stop-color:#1A1A1A"/>
			</linearGradient>
			<path fill="url(#SVGID_13_)" d="M1020.002,42.491c2.497-13.073,14.326-15.022,30.02-13.355
				c12.75,1.771,34.037,14.056,50.192,26.032c12.174,9.024,17.945,11.91,28.715,16.326l-1.095,10.31c0,0-11.047-0.319-31.411-13.569
				c-14.843-9.658-34.63-21.045-49.39-24.697c-13.762-1.462-23.164-1.157-27.271,10.001c-0.923,2.507-1.376,3.298-1.589,5.833
				L1020.002,42.491z"/>
			
				<linearGradient id="SVGID_14_" gradientUnits="userSpaceOnUse" x1="1368.9531" y1="88.1299" x2="1479.3623" y2="88.1299" gradientTransform="matrix(0.9966 -0.0829 0.0829 0.9966 -232.2713 106.2505)">
				<stop  offset="0" style="stop-color:#0D0D0D"/>
				<stop  offset="0.4172" style="stop-color:#6E6E6E"/>
				<stop  offset="0.8405" style="stop-color:#F0F0F0"/>
				<stop  offset="0.9202" style="stop-color:#A6A6A6"/>
				<stop  offset="1" style="stop-color:#0A0A0A"/>
			</linearGradient>
			<path fill="url(#SVGID_14_)" d="M1139.486,82.44l65.327,9.259c0,0,18.04,1.061,24.27-1.792
				c6.735-3.086,11.17-2.995,16.347-11.718c2.564-4.323,3.416-11.737,3.047-17.453c0,0-0.866-7.66-1.394-6.807
				c-0.433,0.701-1.332,6.278-2.794,9.531c-4.752,10.568-11.252,11.511-17.655,13.996c-6.52,2.529-10.116,2.487-18.653,2.702
				c-8.538,0.213-69.325-7.721-69.325-7.721L1139.486,82.44z"/>
			
				<linearGradient id="SVGID_15_" gradientUnits="userSpaceOnUse" x1="1368.0586" y1="67.2988" x2="1479.3623" y2="67.2988" gradientTransform="matrix(0.9966 -0.0829 0.0829 0.9966 -232.2713 106.2505)">
				<stop  offset="0" style="stop-color:#1A1A1A"/>
				<stop  offset="0.1166" style="stop-color:#5C5C5C"/>
				<stop  offset="0.5644" style="stop-color:#9E9E9E"/>
				<stop  offset="0.8589" style="stop-color:#F7F7F7"/>
				<stop  offset="0.9387" style="stop-color:#919191"/>
				<stop  offset="1" style="stop-color:#1A1A1A"/>
			</linearGradient>
			<path fill="url(#SVGID_15_)" d="M1247.125,45.072c-2.197-13.125-13.98-15.345-29.706-14.037
				c-12.788,1.479-34.289,13.27-50.714,24.875c-12.377,8.743-18.152,11.491-29.02,15.661l0.859,10.331
				c0,0,10.99-0.061,31.651-12.842c15.06-9.317,35.072-20.247,49.911-23.561c13.794-1.147,23.17-0.626,27.02,10.623
				c0.865,2.527,1.295,3.33,1.447,5.867L1247.125,45.072z"/>
			
				<linearGradient id="SVGID_16_" gradientUnits="userSpaceOnUse" x1="641.0269" y1="83.1172" x2="640.9468" y2="68.4072" gradientTransform="matrix(-1 0 0 1 1773.8496 0)">
				<stop  offset="0" style="stop-color:#858585"/>
				<stop  offset="0.4049" style="stop-color:#333333"/>
				<stop  offset="0.5951" style="stop-color:#A9A9A9"/>
				<stop  offset="0.7362" style="stop-color:#F5F5F5"/>
				<stop  offset="0.8528" style="stop-color:#A6A6A6"/>
				<stop  offset="1" style="stop-color:#1A1A1A"/>
			</linearGradient>
			<path fill="url(#SVGID_16_)" d="M1140.593,69.45c0.172,2.12-0.312,4.343-0.312,6.637c0,2.294,0.483,4.519,0.312,6.638
				c-2.088,1.278-4.785-0.048-7.734-0.048c-2.947,0-5.646,1.326-7.733,0.048c-0.17-2.119,0.43-4.344,0.43-6.638
				c0-2.294-0.6-4.518-0.43-6.637c2.088-1.278,4.786-0.551,7.733-0.551C1135.808,68.898,1138.505,68.172,1140.593,69.45z"/>
		</g>
	</g>
</g>
<g display="none">
	<g display="inline">
		<rect x="406.678" y="234.45" fill="#408A38" width="461.368" height="19.243"/>
		
			<linearGradient id="SVGID_17_" gradientUnits="userSpaceOnUse" x1="824.168" y1="1004.8799" x2="824.168" y2="546.9415" gradientTransform="matrix(0 -1 -1 0 1415.0205 1068.2393)">
			<stop  offset="0" style="stop-color:#D1D1D1"/>
			<stop  offset="0.0388" style="stop-color:#D5D5D5"/>
			<stop  offset="0.0759" style="stop-color:#E0E0E0"/>
			<stop  offset="0.1123" style="stop-color:#F4F4F4"/>
			<stop  offset="0.1288" style="stop-color:#FFFFFF"/>
			<stop  offset="0.5031" style="stop-color:#0D0D0D"/>
			<stop  offset="0.5467" style="stop-color:#444444"/>
			<stop  offset="0.5912" style="stop-color:#757575"/>
			<stop  offset="0.6368" style="stop-color:#A0A0A0"/>
			<stop  offset="0.6829" style="stop-color:#C2C2C2"/>
			<stop  offset="0.7295" style="stop-color:#DDDDDD"/>
			<stop  offset="0.7769" style="stop-color:#F0F0F0"/>
			<stop  offset="0.8255" style="stop-color:#FBFBFB"/>
			<stop  offset="0.8773" style="stop-color:#FFFFFF"/>
			<stop  offset="1" style="stop-color:#BABABA"/>
		</linearGradient>
		<rect x="406.678" y="234.45" fill="url(#SVGID_17_)" width="461.367" height="19.243"/>
	</g>
	<g display="inline">
		<g>
			<path fill="#408A38" d="M632.109,248.194c0,0-28.626,29.377-33.334,33.264c-4.709,3.886-20.66,14.36-32.184,19.749
				c-15.729,7.354-32.184,13.945-32.184,13.945l-9.25-16.223c0,0,18.598-5.319,35.804-12.024
				c13.411-5.227,20.95-9.166,27.747-12.749c6.799-3.581,38.173-30.788,38.173-30.788L632.109,248.194z"/>
			<path fill="#408A38" d="M642.872,247.744c0,0,28.289,32.284,32.966,36.529c4.68,4.246,20.609,15.597,32.177,21.343
				c15.787,7.841,32.337,14.806,32.337,14.806l9.861-18.53c0,0-18.764-5.471-36.075-12.54c-13.489-5.512-21.046-9.737-27.858-13.582
				s-38.98-33.578-38.98-33.578L642.872,247.744z"/>
			<path fill="#408A38" d="M630.879,249.475l-65.582,7.761c0,0-18.089,0.646-24.25-2.351c-6.662-3.239-11.115-3.25-16.09-12.089
				c-2.465-4.381-3.155-11.813-2.656-17.519c0,0,1.039-7.64,1.545-6.774c0.417,0.711,1.188,6.307,2.575,9.593
				c4.509,10.673,10.983,11.765,17.329,14.396c6.459,2.677,10.117,2.724,18.646,3.133c8.531,0.409,69.544-6.13,69.544-6.13
				L630.879,249.475z"/>
			<path fill="#408A38" d="M524.002,209.647c2.497-13.073,14.326-15.022,30.02-13.355c12.75,1.771,34.037,14.056,50.192,26.031
				c12.174,9.024,17.945,11.91,28.715,16.326l-1.095,10.31c0,0-11.047-0.319-31.411-13.569c-14.843-9.658-34.63-21.045-49.39-24.696
				c-13.762-1.462-23.164-1.157-27.271,10.001c-0.923,2.507-1.376,3.298-1.589,5.832L524.002,209.647z"/>
			<path fill="#408A38" d="M643.486,249.597l65.327,9.26c0,0,18.04,1.061,24.27-1.793c6.735-3.086,11.17-2.995,16.347-11.718
				c2.564-4.323,3.416-11.737,3.047-17.453c0,0-0.866-7.66-1.394-6.807c-0.433,0.701-1.332,6.278-2.794,9.531
				c-4.752,10.567-11.252,11.511-17.655,13.996c-6.52,2.529-10.116,2.487-18.653,2.701c-8.538,0.214-69.325-7.721-69.325-7.721
				L643.486,249.597z"/>
			<path fill="#408A38" d="M751.125,212.229c-2.197-13.126-13.98-15.346-29.706-14.037c-12.788,1.479-34.289,13.271-50.714,24.875
				c-12.377,8.742-18.152,11.491-29.02,15.66l0.859,10.331c0,0,10.99-0.061,31.651-12.842c15.06-9.317,35.072-20.247,49.911-23.561
				c13.794-1.147,23.17-0.627,27.02,10.622c0.865,2.527,1.295,3.33,1.447,5.867L751.125,212.229z"/>
			<path fill="#408A38" d="M644.593,236.606c0.172,2.119-0.312,4.343-0.312,6.637c0,2.295,0.483,4.52,0.312,6.639
				c-2.088,1.277-4.785-0.048-7.734-0.048c-2.947,0-5.646,1.325-7.733,0.048c-0.17-2.119,0.43-4.344,0.43-6.639
				c0-2.294-0.6-4.518-0.43-6.637c2.088-1.278,4.786-0.552,7.733-0.552C639.808,236.055,642.505,235.328,644.593,236.606z"/>
		</g>
		<g>
			
				<linearGradient id="SVGID_18_" gradientUnits="userSpaceOnUse" x1="266.0737" y1="367.9658" x2="337.267" y2="292.8947" gradientTransform="matrix(1.0569 0.2548 -0.2554 1.0592 347.0746 -149.0966)">
				<stop  offset="0" style="stop-color:#575757"/>
				<stop  offset="0.2945" style="stop-color:#C9C9C9"/>
				<stop  offset="0.5276" style="stop-color:#A9A9A9"/>
				<stop  offset="0.7055" style="stop-color:#E3E3E3"/>
				<stop  offset="1" style="stop-color:#000000"/>
			</linearGradient>
			<path fill="url(#SVGID_18_)" d="M632.109,248.194c0,0-28.626,29.377-33.334,33.264c-4.709,3.886-20.66,14.36-32.184,19.749
				c-15.729,7.354-32.184,13.945-32.184,13.945l-9.25-16.223c0,0,18.598-5.319,35.804-12.024
				c13.411-5.227,20.95-9.166,27.747-12.749c6.799-3.581,38.173-30.788,38.173-30.788L632.109,248.194z"/>
			
				<linearGradient id="SVGID_19_" gradientUnits="userSpaceOnUse" x1="470.5771" y1="319.5479" x2="541.7701" y2="244.4771" gradientTransform="matrix(-1.0819 0.3166 0.2301 1.1858 1176.2308 -215.0394)">
				<stop  offset="0" style="stop-color:#575757"/>
				<stop  offset="0.2945" style="stop-color:#C9C9C9"/>
				<stop  offset="0.5276" style="stop-color:#A9A9A9"/>
				<stop  offset="0.7055" style="stop-color:#E3E3E3"/>
				<stop  offset="1" style="stop-color:#000000"/>
			</linearGradient>
			<path fill="url(#SVGID_19_)" d="M642.872,247.744c0,0,28.289,32.284,32.966,36.529c4.68,4.246,20.609,15.597,32.177,21.343
				c15.787,7.841,32.337,14.806,32.337,14.806l9.861-18.53c0,0-18.764-5.471-36.075-12.54c-13.489-5.512-21.046-9.737-27.858-13.582
				s-38.98-33.578-38.98-33.578L642.872,247.744z"/>
			
				<linearGradient id="SVGID_20_" gradientUnits="userSpaceOnUse" x1="1143.6426" y1="263.2437" x2="1254.1709" y2="263.2437" gradientTransform="matrix(-0.9944 -0.1056 -0.1056 0.9944 1796.1123 106.6302)">
				<stop  offset="0" style="stop-color:#0D0D0D"/>
				<stop  offset="0.4172" style="stop-color:#6E6E6E"/>
				<stop  offset="0.8405" style="stop-color:#F0F0F0"/>
				<stop  offset="0.9202" style="stop-color:#A6A6A6"/>
				<stop  offset="1" style="stop-color:#0A0A0A"/>
			</linearGradient>
			<path fill="url(#SVGID_20_)" d="M630.879,249.475l-65.582,7.761c0,0-18.089,0.646-24.25-2.351
				c-6.662-3.239-11.115-3.25-16.09-12.089c-2.465-4.381-3.155-11.813-2.656-17.519c0,0,1.039-7.64,1.545-6.774
				c0.417,0.711,1.188,6.307,2.575,9.593c4.509,10.673,10.983,11.765,17.329,14.396c6.459,2.677,10.117,2.724,18.646,3.133
				c8.531,0.409,69.544-6.13,69.544-6.13L630.879,249.475z"/>
			
				<linearGradient id="SVGID_21_" gradientUnits="userSpaceOnUse" x1="1142.748" y1="242.4141" x2="1254.1709" y2="242.4141" gradientTransform="matrix(-0.9944 -0.1056 -0.1056 0.9944 1796.1123 106.6302)">
				<stop  offset="0" style="stop-color:#1A1A1A"/>
				<stop  offset="0.1166" style="stop-color:#5C5C5C"/>
				<stop  offset="0.5644" style="stop-color:#9E9E9E"/>
				<stop  offset="0.8589" style="stop-color:#F7F7F7"/>
				<stop  offset="0.9387" style="stop-color:#919191"/>
				<stop  offset="1" style="stop-color:#1A1A1A"/>
			</linearGradient>
			<path fill="url(#SVGID_21_)" d="M524.002,209.647c2.497-13.073,14.326-15.022,30.02-13.355
				c12.75,1.771,34.037,14.056,50.192,26.031c12.174,9.024,17.945,11.91,28.715,16.326l-1.095,10.31c0,0-11.047-0.319-31.411-13.569
				c-14.843-9.658-34.63-21.045-49.39-24.696c-13.762-1.462-23.164-1.157-27.271,10.001c-0.923,2.507-1.376,3.298-1.589,5.832
				L524.002,209.647z"/>
			
				<linearGradient id="SVGID_22_" gradientUnits="userSpaceOnUse" x1="860.8247" y1="213.5889" x2="971.2344" y2="213.5889" gradientTransform="matrix(0.9966 -0.0829 0.0829 0.9966 -232.2713 106.2505)">
				<stop  offset="0" style="stop-color:#0D0D0D"/>
				<stop  offset="0.4172" style="stop-color:#6E6E6E"/>
				<stop  offset="0.8405" style="stop-color:#F0F0F0"/>
				<stop  offset="0.9202" style="stop-color:#A6A6A6"/>
				<stop  offset="1" style="stop-color:#0A0A0A"/>
			</linearGradient>
			<path fill="url(#SVGID_22_)" d="M643.486,249.597l65.327,9.26c0,0,18.04,1.061,24.27-1.793
				c6.735-3.086,11.17-2.995,16.347-11.718c2.564-4.323,3.416-11.737,3.047-17.453c0,0-0.866-7.66-1.394-6.807
				c-0.433,0.701-1.332,6.278-2.794,9.531c-4.752,10.567-11.252,11.511-17.655,13.996c-6.52,2.529-10.116,2.487-18.653,2.701
				c-8.538,0.214-69.325-7.721-69.325-7.721L643.486,249.597z"/>
			
				<linearGradient id="SVGID_23_" gradientUnits="userSpaceOnUse" x1="859.9312" y1="192.7578" x2="971.2334" y2="192.7578" gradientTransform="matrix(0.9966 -0.0829 0.0829 0.9966 -232.2713 106.2505)">
				<stop  offset="0" style="stop-color:#1A1A1A"/>
				<stop  offset="0.1166" style="stop-color:#5C5C5C"/>
				<stop  offset="0.5644" style="stop-color:#9E9E9E"/>
				<stop  offset="0.8589" style="stop-color:#F7F7F7"/>
				<stop  offset="0.9387" style="stop-color:#919191"/>
				<stop  offset="1" style="stop-color:#1A1A1A"/>
			</linearGradient>
			<path fill="url(#SVGID_23_)" d="M751.125,212.229c-2.197-13.126-13.98-15.346-29.706-14.037
				c-12.788,1.479-34.289,13.271-50.714,24.875c-12.377,8.742-18.152,11.491-29.02,15.66l0.859,10.331
				c0,0,10.99-0.061,31.651-12.842c15.06-9.317,35.072-20.247,49.911-23.561c13.794-1.147,23.17-0.627,27.02,10.622
				c0.865,2.527,1.295,3.33,1.447,5.867L751.125,212.229z"/>
			
				<linearGradient id="SVGID_24_" gradientUnits="userSpaceOnUse" x1="1137.0264" y1="250.2734" x2="1136.9463" y2="235.5635" gradientTransform="matrix(-1 0 0 1 1773.8496 0)">
				<stop  offset="0" style="stop-color:#858585"/>
				<stop  offset="0.4049" style="stop-color:#333333"/>
				<stop  offset="0.5951" style="stop-color:#A9A9A9"/>
				<stop  offset="0.7362" style="stop-color:#F5F5F5"/>
				<stop  offset="0.8528" style="stop-color:#A6A6A6"/>
				<stop  offset="1" style="stop-color:#1A1A1A"/>
			</linearGradient>
			<path fill="url(#SVGID_24_)" d="M644.593,236.606c0.172,2.119-0.312,4.343-0.312,6.637c0,2.295,0.483,4.52,0.312,6.639
				c-2.088,1.277-4.785-0.048-7.734-0.048c-2.947,0-5.646,1.325-7.733,0.048c-0.17-2.119,0.43-4.344,0.43-6.639
				c0-2.294-0.6-4.518-0.43-6.637c2.088-1.278,4.786-0.552,7.733-0.552C639.808,236.055,642.505,235.328,644.593,236.606z"/>
		</g>
	</g>
</g>
<g display="none">
	<rect x="902.678" y="234.451" display="inline" fill="#4051A1" width="461.368" height="19.243"/>
		<linearGradient id="SVGID_25_" gradientUnits="userSpaceOnUse" x1="824.1675" y1="508.8799" x2="824.1675" y2="50.9416" gradientTransform="matrix(0 -1 -1 0 1415.0205 1068.2393)">
		<stop  offset="0" style="stop-color:#D1D1D1"/>
		<stop  offset="0.0388" style="stop-color:#D5D5D5"/>
		<stop  offset="0.0759" style="stop-color:#E0E0E0"/>
		<stop  offset="0.1123" style="stop-color:#F4F4F4"/>
		<stop  offset="0.1288" style="stop-color:#FFFFFF"/>
		<stop  offset="0.5031" style="stop-color:#0D0D0D"/>
		<stop  offset="0.5467" style="stop-color:#444444"/>
		<stop  offset="0.5912" style="stop-color:#757575"/>
		<stop  offset="0.6368" style="stop-color:#A0A0A0"/>
		<stop  offset="0.6829" style="stop-color:#C2C2C2"/>
		<stop  offset="0.7295" style="stop-color:#DDDDDD"/>
		<stop  offset="0.7769" style="stop-color:#F0F0F0"/>
		<stop  offset="0.8255" style="stop-color:#FBFBFB"/>
		<stop  offset="0.8773" style="stop-color:#FFFFFF"/>
		<stop  offset="1" style="stop-color:#BABABA"/>
	</linearGradient>
	<rect x="902.678" y="234.451" display="inline" fill="url(#SVGID_25_)" width="461.367" height="19.243"/>
</g>
<g display="none">
	<g display="inline">
		<path fill="#4051A1" d="M1128.109,248.194c0,0-28.626,29.377-33.334,33.264c-4.709,3.886-20.66,14.36-32.184,19.75
			c-15.729,7.354-32.184,13.945-32.184,13.945l-9.25-16.223c0,0,18.598-5.319,35.804-12.024c13.411-5.226,20.95-9.166,27.747-12.749
			c6.799-3.581,38.173-30.788,38.173-30.788L1128.109,248.194z"/>
		<path fill="#4051A1" d="M1138.872,247.745c0,0,28.289,32.284,32.966,36.529c4.68,4.247,20.609,15.597,32.177,21.343
			c15.787,7.841,32.337,14.805,32.337,14.805l9.861-18.53c0,0-18.764-5.471-36.075-12.54c-13.489-5.511-21.046-9.737-27.858-13.582
			c-6.813-3.845-38.98-33.579-38.98-33.579L1138.872,247.745z"/>
		<path fill="#4051A1" d="M1126.879,249.475l-65.582,7.761c0,0-18.089,0.646-24.25-2.351c-6.662-3.239-11.115-3.25-16.09-12.089
			c-2.465-4.381-3.155-11.813-2.656-17.518c0,0,1.039-7.64,1.545-6.774c0.417,0.71,1.188,6.307,2.575,9.593
			c4.509,10.672,10.983,11.764,17.329,14.395c6.459,2.677,10.117,2.724,18.646,3.133c8.531,0.409,69.544-6.13,69.544-6.13
			L1126.879,249.475z"/>
		<path fill="#4051A1" d="M1020.002,209.647c2.497-13.073,14.326-15.022,30.02-13.355c12.75,1.771,34.037,14.056,50.192,26.032
			c12.174,9.024,17.945,11.91,28.715,16.326l-1.095,10.31c0,0-11.047-0.319-31.411-13.569c-14.843-9.658-34.63-21.045-49.39-24.697
			c-13.762-1.462-23.164-1.157-27.271,10.001c-0.923,2.507-1.376,3.298-1.589,5.833L1020.002,209.647z"/>
		<path fill="#4051A1" d="M1139.486,249.597l65.327,9.259c0,0,18.04,1.061,24.27-1.792c6.735-3.086,11.17-2.995,16.347-11.718
			c2.564-4.323,3.416-11.737,3.047-17.453c0,0-0.866-7.66-1.394-6.807c-0.433,0.701-1.332,6.278-2.794,9.531
			c-4.752,10.568-11.252,11.511-17.655,13.996c-6.52,2.529-10.116,2.487-18.653,2.702c-8.538,0.213-69.325-7.721-69.325-7.721
			L1139.486,249.597z"/>
		<path fill="#4051A1" d="M1247.125,212.229c-2.197-13.125-13.98-15.345-29.706-14.037c-12.788,1.479-34.289,13.27-50.714,24.875
			c-12.377,8.743-18.152,11.491-29.02,15.661l0.859,10.331c0,0,10.99-0.061,31.651-12.842c15.06-9.317,35.072-20.247,49.911-23.561
			c13.794-1.147,23.17-0.626,27.02,10.623c0.865,2.527,1.295,3.33,1.447,5.867L1247.125,212.229z"/>
		<path fill="#4051A1" d="M1140.593,236.606c0.172,2.12-0.312,4.343-0.312,6.637c0,2.294,0.483,4.519,0.312,6.638
			c-2.088,1.278-4.785-0.048-7.734-0.048c-2.947,0-5.646,1.326-7.733,0.048c-0.17-2.119,0.43-4.344,0.43-6.638
			c0-2.294-0.6-4.518-0.43-6.637c2.088-1.278,4.786-0.551,7.733-0.551C1135.808,236.055,1138.505,235.329,1140.593,236.606z"/>
	</g>
	<g display="inline">
		
			<linearGradient id="SVGID_26_" gradientUnits="userSpaceOnUse" x1="709.5879" y1="261.2749" x2="780.7816" y2="186.2033" gradientTransform="matrix(1.0569 0.2548 -0.2554 1.0592 347.0746 -149.0966)">
			<stop  offset="0" style="stop-color:#575757"/>
			<stop  offset="0.2945" style="stop-color:#C9C9C9"/>
			<stop  offset="0.5276" style="stop-color:#A9A9A9"/>
			<stop  offset="0.7055" style="stop-color:#E3E3E3"/>
			<stop  offset="1" style="stop-color:#000000"/>
		</linearGradient>
		<path fill="url(#SVGID_26_)" d="M1128.109,248.194c0,0-28.626,29.377-33.334,33.264c-4.709,3.886-20.66,14.36-32.184,19.75
			c-15.729,7.354-32.184,13.945-32.184,13.945l-9.25-16.223c0,0,18.598-5.319,35.804-12.024c13.411-5.226,20.95-9.166,27.747-12.749
			c6.799-3.581,38.173-30.788,38.173-30.788L1128.109,248.194z"/>
		
			<linearGradient id="SVGID_27_" gradientUnits="userSpaceOnUse" x1="36.7583" y1="435.375" x2="107.9513" y2="360.3042" gradientTransform="matrix(-1.0819 0.3166 0.2301 1.1858 1176.2308 -215.0394)">
			<stop  offset="0" style="stop-color:#575757"/>
			<stop  offset="0.2945" style="stop-color:#C9C9C9"/>
			<stop  offset="0.5276" style="stop-color:#A9A9A9"/>
			<stop  offset="0.7055" style="stop-color:#E3E3E3"/>
			<stop  offset="1" style="stop-color:#000000"/>
		</linearGradient>
		<path fill="url(#SVGID_27_)" d="M1138.872,247.745c0,0,28.289,32.284,32.966,36.529c4.68,4.247,20.609,15.597,32.177,21.343
			c15.787,7.841,32.337,14.805,32.337,14.805l9.861-18.53c0,0-18.764-5.471-36.075-12.54c-13.489-5.511-21.046-9.737-27.858-13.582
			c-6.813-3.845-38.98-33.579-38.98-33.579L1138.872,247.745z"/>
		
			<linearGradient id="SVGID_28_" gradientUnits="userSpaceOnUse" x1="650.4121" y1="210.8652" x2="760.9404" y2="210.8652" gradientTransform="matrix(-0.9944 -0.1056 -0.1056 0.9944 1796.1123 106.6302)">
			<stop  offset="0" style="stop-color:#0D0D0D"/>
			<stop  offset="0.4172" style="stop-color:#6E6E6E"/>
			<stop  offset="0.8405" style="stop-color:#F0F0F0"/>
			<stop  offset="0.9202" style="stop-color:#A6A6A6"/>
			<stop  offset="1" style="stop-color:#0A0A0A"/>
		</linearGradient>
		<path fill="url(#SVGID_28_)" d="M1126.879,249.475l-65.582,7.761c0,0-18.089,0.646-24.25-2.351
			c-6.662-3.239-11.115-3.25-16.09-12.089c-2.465-4.381-3.155-11.813-2.656-17.518c0,0,1.039-7.64,1.545-6.774
			c0.417,0.71,1.188,6.307,2.575,9.593c4.509,10.672,10.983,11.764,17.329,14.395c6.459,2.677,10.117,2.724,18.646,3.133
			c8.531,0.409,69.544-6.13,69.544-6.13L1126.879,249.475z"/>
		
			<linearGradient id="SVGID_29_" gradientUnits="userSpaceOnUse" x1="649.5176" y1="190.0352" x2="760.9399" y2="190.0352" gradientTransform="matrix(-0.9944 -0.1056 -0.1056 0.9944 1796.1123 106.6302)">
			<stop  offset="0" style="stop-color:#1A1A1A"/>
			<stop  offset="0.1166" style="stop-color:#5C5C5C"/>
			<stop  offset="0.5644" style="stop-color:#9E9E9E"/>
			<stop  offset="0.8589" style="stop-color:#F7F7F7"/>
			<stop  offset="0.9387" style="stop-color:#919191"/>
			<stop  offset="1" style="stop-color:#1A1A1A"/>
		</linearGradient>
		<path fill="url(#SVGID_29_)" d="M1020.002,209.647c2.497-13.073,14.326-15.022,30.02-13.355
			c12.75,1.771,34.037,14.056,50.192,26.032c12.174,9.024,17.945,11.91,28.715,16.326l-1.095,10.31c0,0-11.047-0.319-31.411-13.569
			c-14.843-9.658-34.63-21.045-49.39-24.697c-13.762-1.462-23.164-1.157-27.271,10.001c-0.923,2.507-1.376,3.298-1.589,5.833
			L1020.002,209.647z"/>
		
			<linearGradient id="SVGID_30_" gradientUnits="userSpaceOnUse" x1="1355.0967" y1="254.7041" x2="1465.5059" y2="254.7041" gradientTransform="matrix(0.9966 -0.0829 0.0829 0.9966 -232.2713 106.2505)">
			<stop  offset="0" style="stop-color:#0D0D0D"/>
			<stop  offset="0.4172" style="stop-color:#6E6E6E"/>
			<stop  offset="0.8405" style="stop-color:#F0F0F0"/>
			<stop  offset="0.9202" style="stop-color:#A6A6A6"/>
			<stop  offset="1" style="stop-color:#0A0A0A"/>
		</linearGradient>
		<path fill="url(#SVGID_30_)" d="M1139.486,249.597l65.327,9.259c0,0,18.04,1.061,24.27-1.792
			c6.735-3.086,11.17-2.995,16.347-11.718c2.564-4.323,3.416-11.737,3.047-17.453c0,0-0.866-7.66-1.394-6.807
			c-0.433,0.701-1.332,6.278-2.794,9.531c-4.752,10.568-11.252,11.511-17.655,13.996c-6.52,2.529-10.116,2.487-18.653,2.702
			c-8.538,0.213-69.325-7.721-69.325-7.721L1139.486,249.597z"/>
		
			<linearGradient id="SVGID_31_" gradientUnits="userSpaceOnUse" x1="1354.2031" y1="233.874" x2="1465.5059" y2="233.874" gradientTransform="matrix(0.9966 -0.0829 0.0829 0.9966 -232.2713 106.2505)">
			<stop  offset="0" style="stop-color:#1A1A1A"/>
			<stop  offset="0.1166" style="stop-color:#5C5C5C"/>
			<stop  offset="0.5644" style="stop-color:#9E9E9E"/>
			<stop  offset="0.8589" style="stop-color:#F7F7F7"/>
			<stop  offset="0.9387" style="stop-color:#919191"/>
			<stop  offset="1" style="stop-color:#1A1A1A"/>
		</linearGradient>
		<path fill="url(#SVGID_31_)" d="M1247.125,212.229c-2.197-13.125-13.98-15.345-29.706-14.037
			c-12.788,1.479-34.289,13.27-50.714,24.875c-12.377,8.743-18.152,11.491-29.02,15.661l0.859,10.331c0,0,10.99-0.061,31.651-12.842
			c15.06-9.317,35.072-20.247,49.911-23.561c13.794-1.147,23.17-0.626,27.02,10.623c0.865,2.527,1.295,3.33,1.447,5.867
			L1247.125,212.229z"/>
		
			<linearGradient id="SVGID_32_" gradientUnits="userSpaceOnUse" x1="641.0269" y1="250.2734" x2="640.9468" y2="235.564" gradientTransform="matrix(-1 0 0 1 1773.8496 0)">
			<stop  offset="0" style="stop-color:#858585"/>
			<stop  offset="0.4049" style="stop-color:#333333"/>
			<stop  offset="0.5951" style="stop-color:#A9A9A9"/>
			<stop  offset="0.7362" style="stop-color:#F5F5F5"/>
			<stop  offset="0.8528" style="stop-color:#A6A6A6"/>
			<stop  offset="1" style="stop-color:#1A1A1A"/>
		</linearGradient>
		<path fill="url(#SVGID_32_)" d="M1140.593,236.606c0.172,2.12-0.312,4.343-0.312,6.637c0,2.294,0.483,4.519,0.312,6.638
			c-2.088,1.278-4.785-0.048-7.734-0.048c-2.947,0-5.646,1.326-7.733,0.048c-0.17-2.119,0.43-4.344,0.43-6.638
			c0-2.294-0.6-4.518-0.43-6.637c2.088-1.278,4.786-0.551,7.733-0.551C1135.808,236.055,1138.505,235.329,1140.593,236.606z"/>
	</g>
</g>
<g display="none">
	<g display="inline">
		<rect x="406.678" y="401.607" fill="#9AA1A7" width="461.368" height="19.242"/>
		
			<linearGradient id="SVGID_33_" gradientUnits="userSpaceOnUse" x1="657.0112" y1="1004.8799" x2="657.0112" y2="546.9415" gradientTransform="matrix(0 -1 -1 0 1415.0205 1068.2393)">
			<stop  offset="0" style="stop-color:#D1D1D1"/>
			<stop  offset="0.0388" style="stop-color:#D5D5D5"/>
			<stop  offset="0.0759" style="stop-color:#E0E0E0"/>
			<stop  offset="0.1123" style="stop-color:#F4F4F4"/>
			<stop  offset="0.1288" style="stop-color:#FFFFFF"/>
			<stop  offset="0.5031" style="stop-color:#0D0D0D"/>
			<stop  offset="0.5467" style="stop-color:#444444"/>
			<stop  offset="0.5912" style="stop-color:#757575"/>
			<stop  offset="0.6368" style="stop-color:#A0A0A0"/>
			<stop  offset="0.6829" style="stop-color:#C2C2C2"/>
			<stop  offset="0.7295" style="stop-color:#DDDDDD"/>
			<stop  offset="0.7769" style="stop-color:#F0F0F0"/>
			<stop  offset="0.8255" style="stop-color:#FBFBFB"/>
			<stop  offset="0.8773" style="stop-color:#FFFFFF"/>
			<stop  offset="1" style="stop-color:#BABABA"/>
		</linearGradient>
		<rect x="406.678" y="401.607" fill="url(#SVGID_33_)" width="461.367" height="19.242"/>
	</g>
	<g display="inline">
		<g>
			<path fill="#9AA1A7" d="M632.109,415.351c0,0-28.626,29.377-33.334,33.264c-4.709,3.886-20.66,14.36-32.184,19.749
				c-15.729,7.354-32.184,13.945-32.184,13.945l-9.25-16.223c0,0,18.598-5.319,35.804-12.024
				c13.411-5.226,20.95-9.165,27.747-12.749c6.799-3.581,38.173-30.787,38.173-30.787L632.109,415.351z"/>
			<path fill="#9AA1A7" d="M642.872,414.9c0,0,28.289,32.284,32.966,36.529c4.68,4.246,20.609,15.597,32.177,21.344
				c15.787,7.84,32.337,14.805,32.337,14.805l9.861-18.53c0,0-18.764-5.471-36.075-12.54c-13.489-5.512-21.046-9.737-27.858-13.582
				c-6.813-3.844-38.98-33.578-38.98-33.578L642.872,414.9z"/>
			<path fill="#9AA1A7" d="M630.879,416.631l-65.582,7.762c0,0-18.089,0.645-24.25-2.352c-6.662-3.239-11.115-3.25-16.09-12.089
				c-2.465-4.381-3.155-11.813-2.656-17.519c0,0,1.039-7.64,1.545-6.772c0.417,0.709,1.188,6.306,2.575,9.591
				c4.509,10.673,10.983,11.765,17.329,14.396c6.459,2.677,10.117,2.724,18.646,3.133c8.531,0.409,69.544-6.13,69.544-6.13
				L630.879,416.631z"/>
			<path fill="#9AA1A7" d="M524.002,376.804c2.497-13.072,14.326-15.021,30.02-13.355c12.75,1.771,34.037,14.057,50.192,26.032
				c12.174,9.023,17.945,11.91,28.715,16.325l-1.095,10.31c0,0-11.047-0.319-31.411-13.568c-14.843-9.658-34.63-21.046-49.39-24.696
				c-13.762-1.463-23.164-1.157-27.271,10c-0.923,2.507-1.376,3.298-1.589,5.833L524.002,376.804z"/>
			<path fill="#9AA1A7" d="M643.486,416.754l65.327,9.259c0,0,18.04,1.062,24.27-1.792c6.735-3.086,11.17-2.996,16.347-11.719
				c2.564-4.322,3.416-11.737,3.047-17.453c0,0-0.866-7.66-1.394-6.807c-0.433,0.701-1.332,6.279-2.794,9.531
				c-4.752,10.568-11.252,11.511-17.655,13.996c-6.52,2.529-10.116,2.487-18.653,2.701c-8.538,0.214-69.325-7.721-69.325-7.721
				L643.486,416.754z"/>
			<path fill="#9AA1A7" d="M751.125,379.386c-2.197-13.126-13.98-15.346-29.706-14.037c-12.788,1.479-34.289,13.27-50.714,24.874
				c-12.377,8.742-18.152,11.491-29.02,15.66l0.859,10.332c0,0,10.99-0.062,31.651-12.843c15.06-9.317,35.072-20.246,49.911-23.561
				c13.794-1.146,23.17-0.625,27.02,10.622c0.865,2.527,1.295,3.33,1.447,5.867L751.125,379.386z"/>
			<path fill="#9AA1A7" d="M644.593,403.763c0.172,2.12-0.312,4.343-0.312,6.638c0,2.294,0.483,4.519,0.312,6.638
				c-2.088,1.278-4.785-0.048-7.734-0.048c-2.947,0-5.646,1.326-7.733,0.048c-0.17-2.119,0.43-4.344,0.43-6.638
				c0-2.295-0.6-4.518-0.43-6.638c2.088-1.278,4.786-0.552,7.733-0.552C639.808,403.211,642.505,402.484,644.593,403.763z"/>
		</g>
		<g>
			
				<linearGradient id="SVGID_34_" gradientUnits="userSpaceOnUse" x1="302.1143" y1="517.1094" x2="373.3075" y2="442.0383" gradientTransform="matrix(1.0569 0.2548 -0.2554 1.0592 347.0746 -149.0966)">
				<stop  offset="0" style="stop-color:#575757"/>
				<stop  offset="0.2945" style="stop-color:#C9C9C9"/>
				<stop  offset="0.5276" style="stop-color:#A9A9A9"/>
				<stop  offset="0.7055" style="stop-color:#E3E3E3"/>
				<stop  offset="1" style="stop-color:#000000"/>
			</linearGradient>
			<path fill="url(#SVGID_34_)" d="M632.109,415.351c0,0-28.626,29.377-33.334,33.264c-4.709,3.886-20.66,14.36-32.184,19.749
				c-15.729,7.354-32.184,13.945-32.184,13.945l-9.25-16.223c0,0,18.598-5.319,35.804-12.024
				c13.411-5.226,20.95-9.165,27.747-12.749c6.799-3.581,38.173-30.787,38.173-30.787L632.109,415.351z"/>
			
				<linearGradient id="SVGID_35_" gradientUnits="userSpaceOnUse" x1="498.9468" y1="452.9385" x2="570.1404" y2="377.867" gradientTransform="matrix(-1.0819 0.3166 0.2301 1.1858 1176.2308 -215.0394)">
				<stop  offset="0" style="stop-color:#575757"/>
				<stop  offset="0.2945" style="stop-color:#C9C9C9"/>
				<stop  offset="0.5276" style="stop-color:#A9A9A9"/>
				<stop  offset="0.7055" style="stop-color:#E3E3E3"/>
				<stop  offset="1" style="stop-color:#000000"/>
			</linearGradient>
			<path fill="url(#SVGID_35_)" d="M642.872,414.9c0,0,28.289,32.284,32.966,36.529c4.68,4.246,20.609,15.597,32.177,21.344
				c15.787,7.84,32.337,14.805,32.337,14.805l9.861-18.53c0,0-18.764-5.471-36.075-12.54c-13.489-5.512-21.046-9.737-27.858-13.582
				c-6.813-3.844-38.98-33.578-38.98-33.578L642.872,414.9z"/>
			
				<linearGradient id="SVGID_36_" gradientUnits="userSpaceOnUse" x1="1125.9912" y1="429.4678" x2="1236.5195" y2="429.4678" gradientTransform="matrix(-0.9944 -0.1056 -0.1056 0.9944 1796.1123 106.6302)">
				<stop  offset="0" style="stop-color:#0D0D0D"/>
				<stop  offset="0.4172" style="stop-color:#6E6E6E"/>
				<stop  offset="0.8405" style="stop-color:#F0F0F0"/>
				<stop  offset="0.9202" style="stop-color:#A6A6A6"/>
				<stop  offset="1" style="stop-color:#0A0A0A"/>
			</linearGradient>
			<path fill="url(#SVGID_36_)" d="M630.879,416.631l-65.582,7.762c0,0-18.089,0.645-24.25-2.352
				c-6.662-3.239-11.115-3.25-16.09-12.089c-2.465-4.381-3.155-11.813-2.656-17.519c0,0,1.039-7.64,1.545-6.772
				c0.417,0.709,1.188,6.306,2.575,9.591c4.509,10.673,10.983,11.765,17.329,14.396c6.459,2.677,10.117,2.724,18.646,3.133
				c8.531,0.409,69.544-6.13,69.544-6.13L630.879,416.631z"/>
			
				<linearGradient id="SVGID_37_" gradientUnits="userSpaceOnUse" x1="1125.0967" y1="408.6377" x2="1236.5195" y2="408.6377" gradientTransform="matrix(-0.9944 -0.1056 -0.1056 0.9944 1796.1123 106.6302)">
				<stop  offset="0" style="stop-color:#1A1A1A"/>
				<stop  offset="0.1166" style="stop-color:#5C5C5C"/>
				<stop  offset="0.5644" style="stop-color:#9E9E9E"/>
				<stop  offset="0.8589" style="stop-color:#F7F7F7"/>
				<stop  offset="0.9387" style="stop-color:#919191"/>
				<stop  offset="1" style="stop-color:#1A1A1A"/>
			</linearGradient>
			<path fill="url(#SVGID_37_)" d="M524.002,376.804c2.497-13.072,14.326-15.021,30.02-13.355
				c12.75,1.771,34.037,14.057,50.192,26.032c12.174,9.023,17.945,11.91,28.715,16.325l-1.095,10.31c0,0-11.047-0.319-31.411-13.568
				c-14.843-9.658-34.63-21.046-49.39-24.696c-13.762-1.463-23.164-1.157-27.271,10c-0.923,2.507-1.376,3.298-1.589,5.833
				L524.002,376.804z"/>
			
				<linearGradient id="SVGID_38_" gradientUnits="userSpaceOnUse" x1="846.9683" y1="380.1631" x2="957.3779" y2="380.1631" gradientTransform="matrix(0.9966 -0.0829 0.0829 0.9966 -232.2713 106.2505)">
				<stop  offset="0" style="stop-color:#0D0D0D"/>
				<stop  offset="0.4172" style="stop-color:#6E6E6E"/>
				<stop  offset="0.8405" style="stop-color:#F0F0F0"/>
				<stop  offset="0.9202" style="stop-color:#A6A6A6"/>
				<stop  offset="1" style="stop-color:#0A0A0A"/>
			</linearGradient>
			<path fill="url(#SVGID_38_)" d="M643.486,416.754l65.327,9.259c0,0,18.04,1.062,24.27-1.792
				c6.735-3.086,11.17-2.996,16.347-11.719c2.564-4.322,3.416-11.737,3.047-17.453c0,0-0.866-7.66-1.394-6.807
				c-0.433,0.701-1.332,6.279-2.794,9.531c-4.752,10.568-11.252,11.511-17.655,13.996c-6.52,2.529-10.116,2.487-18.653,2.701
				c-8.538,0.214-69.325-7.721-69.325-7.721L643.486,416.754z"/>
			
				<linearGradient id="SVGID_39_" gradientUnits="userSpaceOnUse" x1="846.0752" y1="359.333" x2="957.377" y2="359.333" gradientTransform="matrix(0.9966 -0.0829 0.0829 0.9966 -232.2713 106.2505)">
				<stop  offset="0" style="stop-color:#1A1A1A"/>
				<stop  offset="0.1166" style="stop-color:#5C5C5C"/>
				<stop  offset="0.5644" style="stop-color:#9E9E9E"/>
				<stop  offset="0.8589" style="stop-color:#F7F7F7"/>
				<stop  offset="0.9387" style="stop-color:#919191"/>
				<stop  offset="1" style="stop-color:#1A1A1A"/>
			</linearGradient>
			<path fill="url(#SVGID_39_)" d="M751.125,379.386c-2.197-13.126-13.98-15.346-29.706-14.037
				c-12.788,1.479-34.289,13.27-50.714,24.874c-12.377,8.742-18.152,11.491-29.02,15.66l0.859,10.332c0,0,10.99-0.062,31.651-12.843
				c15.06-9.317,35.072-20.246,49.911-23.561c13.794-1.146,23.17-0.625,27.02,10.622c0.865,2.527,1.295,3.33,1.447,5.867
				L751.125,379.386z"/>
			
				<linearGradient id="SVGID_40_" gradientUnits="userSpaceOnUse" x1="1137.0264" y1="417.4287" x2="1136.9463" y2="402.7173" gradientTransform="matrix(-1 0 0 1 1773.8496 0)">
				<stop  offset="0" style="stop-color:#858585"/>
				<stop  offset="0.4049" style="stop-color:#333333"/>
				<stop  offset="0.5951" style="stop-color:#A9A9A9"/>
				<stop  offset="0.7362" style="stop-color:#F5F5F5"/>
				<stop  offset="0.8528" style="stop-color:#A6A6A6"/>
				<stop  offset="1" style="stop-color:#1A1A1A"/>
			</linearGradient>
			<path fill="url(#SVGID_40_)" d="M644.593,403.763c0.172,2.12-0.312,4.343-0.312,6.638c0,2.294,0.483,4.519,0.312,6.638
				c-2.088,1.278-4.785-0.048-7.734-0.048c-2.947,0-5.646,1.326-7.733,0.048c-0.17-2.119,0.43-4.344,0.43-6.638
				c0-2.295-0.6-4.518-0.43-6.638c2.088-1.278,4.786-0.552,7.733-0.552C639.808,403.211,642.505,402.484,644.593,403.763z"/>
		</g>
	</g>
</g>
<g display="none">
	<g display="inline">
		<rect x="902.678" y="401.607" fill="#EB739C" width="461.368" height="19.242"/>
		
			<linearGradient id="SVGID_41_" gradientUnits="userSpaceOnUse" x1="657.0112" y1="508.8799" x2="657.0112" y2="50.9416" gradientTransform="matrix(0 -1 -1 0 1415.0205 1068.2393)">
			<stop  offset="0" style="stop-color:#D1D1D1"/>
			<stop  offset="0.0388" style="stop-color:#D5D5D5"/>
			<stop  offset="0.0759" style="stop-color:#E0E0E0"/>
			<stop  offset="0.1123" style="stop-color:#F4F4F4"/>
			<stop  offset="0.1288" style="stop-color:#FFFFFF"/>
			<stop  offset="0.5031" style="stop-color:#0D0D0D"/>
			<stop  offset="0.5467" style="stop-color:#444444"/>
			<stop  offset="0.5912" style="stop-color:#757575"/>
			<stop  offset="0.6368" style="stop-color:#A0A0A0"/>
			<stop  offset="0.6829" style="stop-color:#C2C2C2"/>
			<stop  offset="0.7295" style="stop-color:#DDDDDD"/>
			<stop  offset="0.7769" style="stop-color:#F0F0F0"/>
			<stop  offset="0.8255" style="stop-color:#FBFBFB"/>
			<stop  offset="0.8773" style="stop-color:#FFFFFF"/>
			<stop  offset="1" style="stop-color:#BABABA"/>
		</linearGradient>
		<rect x="902.678" y="401.607" fill="url(#SVGID_41_)" width="461.367" height="19.242"/>
	</g>
	<g display="inline">
		<g>
			<path fill="#EB739C" d="M1128.109,415.351c0,0-28.626,29.377-33.334,33.264c-4.709,3.886-20.66,14.36-32.184,19.749
				c-15.729,7.354-32.184,13.945-32.184,13.945l-9.25-16.223c0,0,18.598-5.319,35.804-12.024
				c13.411-5.226,20.95-9.165,27.747-12.749c6.799-3.581,38.173-30.787,38.173-30.787L1128.109,415.351z"/>
			<path fill="#EB739C" d="M1138.872,414.9c0,0,28.289,32.284,32.966,36.529c4.68,4.246,20.609,15.597,32.177,21.344
				c15.787,7.84,32.337,14.805,32.337,14.805l9.861-18.53c0,0-18.764-5.471-36.075-12.54c-13.489-5.512-21.046-9.737-27.858-13.582
				c-6.813-3.844-38.98-33.578-38.98-33.578L1138.872,414.9z"/>
			<path fill="#EB739C" d="M1126.879,416.631l-65.582,7.762c0,0-18.089,0.645-24.25-2.352c-6.662-3.239-11.115-3.25-16.09-12.089
				c-2.465-4.381-3.155-11.813-2.656-17.519c0,0,1.039-7.64,1.545-6.773c0.417,0.71,1.188,6.307,2.575,9.592
				c4.509,10.673,10.983,11.765,17.329,14.396c6.459,2.677,10.117,2.724,18.646,3.133c8.531,0.409,69.544-6.13,69.544-6.13
				L1126.879,416.631z"/>
			<path fill="#EB739C" d="M1020.002,376.804c2.497-13.072,14.326-15.022,30.02-13.355c12.75,1.771,34.037,14.057,50.192,26.032
				c12.174,9.023,17.945,11.91,28.715,16.325l-1.095,10.31c0,0-11.047-0.319-31.411-13.568c-14.843-9.658-34.63-21.046-49.39-24.697
				c-13.762-1.462-23.164-1.157-27.271,10.001c-0.923,2.507-1.376,3.298-1.589,5.833L1020.002,376.804z"/>
			<path fill="#EB739C" d="M1139.486,416.754l65.327,9.259c0,0,18.04,1.062,24.27-1.792c6.735-3.086,11.17-2.996,16.347-11.719
				c2.564-4.322,3.416-11.737,3.047-17.453c0,0-0.866-7.66-1.394-6.807c-0.433,0.701-1.332,6.279-2.794,9.531
				c-4.752,10.568-11.252,11.511-17.655,13.996c-6.52,2.529-10.116,2.487-18.653,2.701c-8.538,0.214-69.325-7.721-69.325-7.721
				L1139.486,416.754z"/>
			<path fill="#EB739C" d="M1247.125,379.385c-2.197-13.126-13.98-15.345-29.706-14.036c-12.788,1.479-34.289,13.27-50.714,24.874
				c-12.377,8.742-18.152,11.491-29.02,15.66l0.859,10.332c0,0,10.99-0.062,31.651-12.843c15.06-9.317,35.072-20.247,49.911-23.561
				c13.794-1.147,23.17-0.626,27.02,10.622c0.865,2.527,1.295,3.33,1.447,5.867L1247.125,379.385z"/>
			<path fill="#EB739C" d="M1140.593,403.763c0.172,2.12-0.312,4.343-0.312,6.638c0,2.294,0.483,4.519,0.312,6.638
				c-2.088,1.278-4.785-0.048-7.734-0.048c-2.947,0-5.646,1.326-7.733,0.048c-0.17-2.119,0.43-4.344,0.43-6.638
				c0-2.295-0.6-4.518-0.43-6.638c2.088-1.278,4.786-0.552,7.733-0.552C1135.808,403.211,1138.505,402.484,1140.593,403.763z"/>
		</g>
		<g>
			
				<linearGradient id="SVGID_42_" gradientUnits="userSpaceOnUse" x1="745.6289" y1="410.4189" x2="816.8225" y2="335.3475" gradientTransform="matrix(1.0569 0.2548 -0.2554 1.0592 347.0746 -149.0966)">
				<stop  offset="0" style="stop-color:#575757"/>
				<stop  offset="0.2945" style="stop-color:#C9C9C9"/>
				<stop  offset="0.5276" style="stop-color:#A9A9A9"/>
				<stop  offset="0.7055" style="stop-color:#E3E3E3"/>
				<stop  offset="1" style="stop-color:#000000"/>
			</linearGradient>
			<path fill="url(#SVGID_42_)" d="M1128.109,415.351c0,0-28.626,29.377-33.334,33.264c-4.709,3.886-20.66,14.36-32.184,19.749
				c-15.729,7.354-32.184,13.945-32.184,13.945l-9.25-16.223c0,0,18.598-5.319,35.804-12.024
				c13.411-5.226,20.95-9.165,27.747-12.749c6.799-3.581,38.173-30.787,38.173-30.787L1128.109,415.351z"/>
			
				<linearGradient id="SVGID_43_" gradientUnits="userSpaceOnUse" x1="65.1274" y1="568.7646" x2="136.321" y2="493.6932" gradientTransform="matrix(-1.0819 0.3166 0.2301 1.1858 1176.2308 -215.0394)">
				<stop  offset="0" style="stop-color:#575757"/>
				<stop  offset="0.2945" style="stop-color:#C9C9C9"/>
				<stop  offset="0.5276" style="stop-color:#A9A9A9"/>
				<stop  offset="0.7055" style="stop-color:#E3E3E3"/>
				<stop  offset="1" style="stop-color:#000000"/>
			</linearGradient>
			<path fill="url(#SVGID_43_)" d="M1138.872,414.9c0,0,28.289,32.284,32.966,36.529c4.68,4.246,20.609,15.597,32.177,21.344
				c15.787,7.84,32.337,14.805,32.337,14.805l9.861-18.53c0,0-18.764-5.471-36.075-12.54c-13.489-5.512-21.046-9.737-27.858-13.582
				c-6.813-3.844-38.98-33.578-38.98-33.578L1138.872,414.9z"/>
			
				<linearGradient id="SVGID_44_" gradientUnits="userSpaceOnUse" x1="632.7607" y1="377.0889" x2="743.2881" y2="377.0889" gradientTransform="matrix(-0.9944 -0.1056 -0.1056 0.9944 1796.1123 106.6302)">
				<stop  offset="0" style="stop-color:#0D0D0D"/>
				<stop  offset="0.4172" style="stop-color:#6E6E6E"/>
				<stop  offset="0.8405" style="stop-color:#F0F0F0"/>
				<stop  offset="0.9202" style="stop-color:#A6A6A6"/>
				<stop  offset="1" style="stop-color:#0A0A0A"/>
			</linearGradient>
			<path fill="url(#SVGID_44_)" d="M1126.879,416.631l-65.582,7.762c0,0-18.089,0.645-24.25-2.352
				c-6.662-3.239-11.115-3.25-16.09-12.089c-2.465-4.381-3.155-11.813-2.656-17.519c0,0,1.039-7.64,1.545-6.773
				c0.417,0.71,1.188,6.307,2.575,9.592c4.509,10.673,10.983,11.765,17.329,14.396c6.459,2.677,10.117,2.724,18.646,3.133
				c8.531,0.409,69.544-6.13,69.544-6.13L1126.879,416.631z"/>
			
				<linearGradient id="SVGID_45_" gradientUnits="userSpaceOnUse" x1="631.8652" y1="356.2583" x2="743.2876" y2="356.2583" gradientTransform="matrix(-0.9944 -0.1056 -0.1056 0.9944 1796.1123 106.6302)">
				<stop  offset="0" style="stop-color:#1A1A1A"/>
				<stop  offset="0.1166" style="stop-color:#5C5C5C"/>
				<stop  offset="0.5644" style="stop-color:#9E9E9E"/>
				<stop  offset="0.8589" style="stop-color:#F7F7F7"/>
				<stop  offset="0.9387" style="stop-color:#919191"/>
				<stop  offset="1" style="stop-color:#1A1A1A"/>
			</linearGradient>
			<path fill="url(#SVGID_45_)" d="M1020.002,376.804c2.497-13.072,14.326-15.022,30.02-13.355
				c12.75,1.771,34.037,14.057,50.192,26.032c12.174,9.023,17.945,11.91,28.715,16.325l-1.095,10.31c0,0-11.047-0.319-31.411-13.568
				c-14.843-9.658-34.63-21.046-49.39-24.697c-13.762-1.462-23.164-1.157-27.271,10.001c-0.923,2.507-1.376,3.298-1.589,5.833
				L1020.002,376.804z"/>
			
				<linearGradient id="SVGID_46_" gradientUnits="userSpaceOnUse" x1="1341.2402" y1="421.2783" x2="1451.6504" y2="421.2783" gradientTransform="matrix(0.9966 -0.0829 0.0829 0.9966 -232.2713 106.2505)">
				<stop  offset="0" style="stop-color:#0D0D0D"/>
				<stop  offset="0.4172" style="stop-color:#6E6E6E"/>
				<stop  offset="0.8405" style="stop-color:#F0F0F0"/>
				<stop  offset="0.9202" style="stop-color:#A6A6A6"/>
				<stop  offset="1" style="stop-color:#0A0A0A"/>
			</linearGradient>
			<path fill="url(#SVGID_46_)" d="M1139.486,416.754l65.327,9.259c0,0,18.04,1.062,24.27-1.792
				c6.735-3.086,11.17-2.996,16.347-11.719c2.564-4.322,3.416-11.737,3.047-17.453c0,0-0.866-7.66-1.394-6.807
				c-0.433,0.701-1.332,6.279-2.794,9.531c-4.752,10.568-11.252,11.511-17.655,13.996c-6.52,2.529-10.116,2.487-18.653,2.701
				c-8.538,0.214-69.325-7.721-69.325-7.721L1139.486,416.754z"/>
			
				<linearGradient id="SVGID_47_" gradientUnits="userSpaceOnUse" x1="1340.3467" y1="400.4482" x2="1451.6494" y2="400.4482" gradientTransform="matrix(0.9966 -0.0829 0.0829 0.9966 -232.2713 106.2505)">
				<stop  offset="0" style="stop-color:#1A1A1A"/>
				<stop  offset="0.1166" style="stop-color:#5C5C5C"/>
				<stop  offset="0.5644" style="stop-color:#9E9E9E"/>
				<stop  offset="0.8589" style="stop-color:#F7F7F7"/>
				<stop  offset="0.9387" style="stop-color:#919191"/>
				<stop  offset="1" style="stop-color:#1A1A1A"/>
			</linearGradient>
			<path fill="url(#SVGID_47_)" d="M1247.125,379.385c-2.197-13.126-13.98-15.345-29.706-14.036
				c-12.788,1.479-34.289,13.27-50.714,24.874c-12.377,8.742-18.152,11.491-29.02,15.66l0.859,10.332c0,0,10.99-0.062,31.651-12.843
				c15.06-9.317,35.072-20.247,49.911-23.561c13.794-1.147,23.17-0.626,27.02,10.622c0.865,2.527,1.295,3.33,1.447,5.867
				L1247.125,379.385z"/>
			
				<linearGradient id="SVGID_48_" gradientUnits="userSpaceOnUse" x1="641.0273" y1="417.4287" x2="640.9473" y2="402.7173" gradientTransform="matrix(-1 0 0 1 1773.8496 0)">
				<stop  offset="0" style="stop-color:#858585"/>
				<stop  offset="0.4049" style="stop-color:#333333"/>
				<stop  offset="0.5951" style="stop-color:#A9A9A9"/>
				<stop  offset="0.7362" style="stop-color:#F5F5F5"/>
				<stop  offset="0.8528" style="stop-color:#A6A6A6"/>
				<stop  offset="1" style="stop-color:#1A1A1A"/>
			</linearGradient>
			<path fill="url(#SVGID_48_)" d="M1140.593,403.763c0.172,2.12-0.312,4.343-0.312,6.638c0,2.294,0.483,4.519,0.312,6.638
				c-2.088,1.278-4.785-0.048-7.734-0.048c-2.947,0-5.646,1.326-7.733,0.048c-0.17-2.119,0.43-4.344,0.43-6.638
				c0-2.295-0.6-4.518-0.43-6.638c2.088-1.278,4.786-0.552,7.733-0.552C1135.808,403.211,1138.505,402.484,1140.593,403.763z"/>
		</g>
	</g>
</g>
<g display="none">
	<g display="inline">
		<rect x="406.678" y="568.765" fill="#5C2381" width="461.368" height="19.242"/>
		
			<linearGradient id="SVGID_49_" gradientUnits="userSpaceOnUse" x1="489.854" y1="1004.8799" x2="489.854" y2="546.9415" gradientTransform="matrix(0 -1 -1 0 1415.0205 1068.2393)">
			<stop  offset="0" style="stop-color:#D1D1D1"/>
			<stop  offset="0.0388" style="stop-color:#D5D5D5"/>
			<stop  offset="0.0759" style="stop-color:#E0E0E0"/>
			<stop  offset="0.1123" style="stop-color:#F4F4F4"/>
			<stop  offset="0.1288" style="stop-color:#FFFFFF"/>
			<stop  offset="0.5031" style="stop-color:#0D0D0D"/>
			<stop  offset="0.5467" style="stop-color:#444444"/>
			<stop  offset="0.5912" style="stop-color:#757575"/>
			<stop  offset="0.6368" style="stop-color:#A0A0A0"/>
			<stop  offset="0.6829" style="stop-color:#C2C2C2"/>
			<stop  offset="0.7295" style="stop-color:#DDDDDD"/>
			<stop  offset="0.7769" style="stop-color:#F0F0F0"/>
			<stop  offset="0.8255" style="stop-color:#FBFBFB"/>
			<stop  offset="0.8773" style="stop-color:#FFFFFF"/>
			<stop  offset="1" style="stop-color:#BABABA"/>
		</linearGradient>
		<rect x="406.678" y="568.765" fill="url(#SVGID_49_)" width="461.367" height="19.242"/>
	</g>
	<g display="inline">
		<g>
			<path fill="#5C2381" d="M632.109,582.508c0,0-28.626,29.377-33.334,33.264c-4.709,3.886-20.66,14.36-32.184,19.749
				c-15.729,7.354-32.184,13.945-32.184,13.945l-9.25-16.223c0,0,18.598-5.319,35.804-12.024
				c13.411-5.226,20.95-9.165,27.747-12.749c6.799-3.581,38.173-30.787,38.173-30.787L632.109,582.508z"/>
			<path fill="#5C2381" d="M642.872,582.058c0,0,28.289,32.284,32.966,36.529c4.68,4.246,20.609,15.597,32.177,21.344
				c15.787,7.84,32.337,14.805,32.337,14.805l9.861-18.53c0,0-18.764-5.471-36.075-12.54c-13.489-5.512-21.046-9.737-27.858-13.582
				c-6.813-3.844-38.98-33.578-38.98-33.578L642.872,582.058z"/>
			<path fill="#5C2381" d="M630.879,583.788l-65.582,7.762c0,0-18.089,0.645-24.25-2.352c-6.662-3.239-11.115-3.25-16.09-12.089
				c-2.465-4.381-3.155-11.813-2.656-17.519c0,0,1.039-7.64,1.545-6.773c0.417,0.71,1.188,6.307,2.575,9.592
				c4.509,10.673,10.983,11.765,17.329,14.396c6.459,2.677,10.117,2.724,18.646,3.133c8.531,0.409,69.544-6.13,69.544-6.13
				L630.879,583.788z"/>
			<path fill="#5C2381" d="M524.002,543.961c2.497-13.073,14.326-15.022,30.02-13.355c12.75,1.771,34.037,14.056,50.192,26.032
				c12.174,9.023,17.945,11.91,28.715,16.325l-1.095,10.31c0,0-11.047-0.319-31.411-13.568c-14.843-9.658-34.63-21.046-49.39-24.697
				c-13.762-1.462-23.164-1.156-27.271,10.001c-0.923,2.507-1.376,3.298-1.589,5.833L524.002,543.961z"/>
			<path fill="#5C2381" d="M643.486,583.911l65.327,9.259c0,0,18.04,1.062,24.27-1.792c6.735-3.086,11.17-2.996,16.347-11.719
				c2.564-4.322,3.416-11.737,3.047-17.453c0,0-0.866-7.66-1.394-6.807c-0.433,0.701-1.332,6.279-2.794,9.531
				c-4.752,10.568-11.252,11.511-17.655,13.996c-6.52,2.529-10.116,2.487-18.653,2.701c-8.538,0.214-69.325-7.721-69.325-7.721
				L643.486,583.911z"/>
			<path fill="#5C2381" d="M751.125,546.542c-2.197-13.125-13.98-15.346-29.706-14.037c-12.788,1.479-34.289,13.271-50.714,24.875
				c-12.377,8.742-18.152,11.491-29.02,15.66l0.859,10.332c0,0,10.99-0.062,31.651-12.843c15.06-9.317,35.072-20.247,49.911-23.561
				c13.794-1.147,23.17-0.626,27.02,10.622c0.865,2.527,1.295,3.33,1.447,5.867L751.125,546.542z"/>
			<path fill="#5C2381" d="M644.593,570.92c0.172,2.12-0.312,4.343-0.312,6.638c0,2.294,0.483,4.519,0.312,6.638
				c-2.088,1.278-4.785-0.048-7.734-0.048c-2.947,0-5.646,1.326-7.733,0.048c-0.17-2.119,0.43-4.344,0.43-6.638
				c0-2.295-0.6-4.518-0.43-6.638c2.088-1.278,4.786-0.552,7.733-0.552C639.808,570.368,642.505,569.642,644.593,570.92z"/>
		</g>
		<g>
			
				<linearGradient id="SVGID_50_" gradientUnits="userSpaceOnUse" x1="338.1543" y1="666.2549" x2="409.3476" y2="591.1838" gradientTransform="matrix(1.0569 0.2548 -0.2554 1.0592 347.0746 -149.0966)">
				<stop  offset="0" style="stop-color:#575757"/>
				<stop  offset="0.2945" style="stop-color:#C9C9C9"/>
				<stop  offset="0.5276" style="stop-color:#A9A9A9"/>
				<stop  offset="0.7055" style="stop-color:#E3E3E3"/>
				<stop  offset="1" style="stop-color:#000000"/>
			</linearGradient>
			<path fill="url(#SVGID_50_)" d="M632.109,582.508c0,0-28.626,29.377-33.334,33.264c-4.709,3.886-20.66,14.36-32.184,19.749
				c-15.729,7.354-32.184,13.945-32.184,13.945l-9.25-16.223c0,0,18.598-5.319,35.804-12.024
				c13.411-5.226,20.95-9.165,27.747-12.749c6.799-3.581,38.173-30.787,38.173-30.787L632.109,582.508z"/>
			
				<linearGradient id="SVGID_51_" gradientUnits="userSpaceOnUse" x1="527.3174" y1="586.3301" x2="598.5104" y2="511.2593" gradientTransform="matrix(-1.0819 0.3166 0.2301 1.1858 1176.2308 -215.0394)">
				<stop  offset="0" style="stop-color:#575757"/>
				<stop  offset="0.2945" style="stop-color:#C9C9C9"/>
				<stop  offset="0.5276" style="stop-color:#A9A9A9"/>
				<stop  offset="0.7055" style="stop-color:#E3E3E3"/>
				<stop  offset="1" style="stop-color:#000000"/>
			</linearGradient>
			<path fill="url(#SVGID_51_)" d="M642.872,582.058c0,0,28.289,32.284,32.966,36.529c4.68,4.246,20.609,15.597,32.177,21.344
				c15.787,7.84,32.337,14.805,32.337,14.805l9.861-18.53c0,0-18.764-5.471-36.075-12.54c-13.489-5.512-21.046-9.737-27.858-13.582
				c-6.813-3.844-38.98-33.578-38.98-33.578L642.872,582.058z"/>
			
				<linearGradient id="SVGID_52_" gradientUnits="userSpaceOnUse" x1="1108.3389" y1="595.6904" x2="1218.8672" y2="595.6904" gradientTransform="matrix(-0.9944 -0.1056 -0.1056 0.9944 1796.1123 106.6302)">
				<stop  offset="0" style="stop-color:#0D0D0D"/>
				<stop  offset="0.4172" style="stop-color:#6E6E6E"/>
				<stop  offset="0.8405" style="stop-color:#F0F0F0"/>
				<stop  offset="0.9202" style="stop-color:#A6A6A6"/>
				<stop  offset="1" style="stop-color:#0A0A0A"/>
			</linearGradient>
			<path fill="url(#SVGID_52_)" d="M630.879,583.788l-65.582,7.762c0,0-18.089,0.645-24.25-2.352
				c-6.662-3.239-11.115-3.25-16.09-12.089c-2.465-4.381-3.155-11.813-2.656-17.519c0,0,1.039-7.64,1.545-6.773
				c0.417,0.71,1.188,6.307,2.575,9.592c4.509,10.673,10.983,11.765,17.329,14.396c6.459,2.677,10.117,2.724,18.646,3.133
				c8.531,0.409,69.544-6.13,69.544-6.13L630.879,583.788z"/>
			
				<linearGradient id="SVGID_53_" gradientUnits="userSpaceOnUse" x1="1107.4443" y1="574.8613" x2="1218.8672" y2="574.8613" gradientTransform="matrix(-0.9944 -0.1056 -0.1056 0.9944 1796.1123 106.6302)">
				<stop  offset="0" style="stop-color:#1A1A1A"/>
				<stop  offset="0.1166" style="stop-color:#5C5C5C"/>
				<stop  offset="0.5644" style="stop-color:#9E9E9E"/>
				<stop  offset="0.8589" style="stop-color:#F7F7F7"/>
				<stop  offset="0.9387" style="stop-color:#919191"/>
				<stop  offset="1" style="stop-color:#1A1A1A"/>
			</linearGradient>
			<path fill="url(#SVGID_53_)" d="M524.002,543.961c2.497-13.073,14.326-15.022,30.02-13.355
				c12.75,1.771,34.037,14.056,50.192,26.032c12.174,9.023,17.945,11.91,28.715,16.325l-1.095,10.31c0,0-11.047-0.319-31.411-13.568
				c-14.843-9.658-34.63-21.046-49.39-24.697c-13.762-1.462-23.164-1.156-27.271,10.001c-0.923,2.507-1.376,3.298-1.589,5.833
				L524.002,543.961z"/>
			
				<linearGradient id="SVGID_54_" gradientUnits="userSpaceOnUse" x1="833.1123" y1="546.7383" x2="943.5215" y2="546.7383" gradientTransform="matrix(0.9966 -0.0829 0.0829 0.9966 -232.2713 106.2505)">
				<stop  offset="0" style="stop-color:#0D0D0D"/>
				<stop  offset="0.4172" style="stop-color:#6E6E6E"/>
				<stop  offset="0.8405" style="stop-color:#F0F0F0"/>
				<stop  offset="0.9202" style="stop-color:#A6A6A6"/>
				<stop  offset="1" style="stop-color:#0A0A0A"/>
			</linearGradient>
			<path fill="url(#SVGID_54_)" d="M643.486,583.911l65.327,9.259c0,0,18.04,1.062,24.27-1.792
				c6.735-3.086,11.17-2.996,16.347-11.719c2.564-4.322,3.416-11.737,3.047-17.453c0,0-0.866-7.66-1.394-6.807
				c-0.433,0.701-1.332,6.279-2.794,9.531c-4.752,10.568-11.252,11.511-17.655,13.996c-6.52,2.529-10.116,2.487-18.653,2.701
				c-8.538,0.214-69.325-7.721-69.325-7.721L643.486,583.911z"/>
			
				<linearGradient id="SVGID_55_" gradientUnits="userSpaceOnUse" x1="832.2188" y1="525.9072" x2="943.5215" y2="525.9072" gradientTransform="matrix(0.9966 -0.0829 0.0829 0.9966 -232.2713 106.2505)">
				<stop  offset="0" style="stop-color:#1A1A1A"/>
				<stop  offset="0.1166" style="stop-color:#5C5C5C"/>
				<stop  offset="0.5644" style="stop-color:#9E9E9E"/>
				<stop  offset="0.8589" style="stop-color:#F7F7F7"/>
				<stop  offset="0.9387" style="stop-color:#919191"/>
				<stop  offset="1" style="stop-color:#1A1A1A"/>
			</linearGradient>
			<path fill="url(#SVGID_55_)" d="M751.125,546.542c-2.197-13.125-13.98-15.346-29.706-14.037
				c-12.788,1.479-34.289,13.271-50.714,24.875c-12.377,8.742-18.152,11.491-29.02,15.66l0.859,10.332
				c0,0,10.99-0.062,31.651-12.843c15.06-9.317,35.072-20.247,49.911-23.561c13.794-1.147,23.17-0.626,27.02,10.622
				c0.865,2.527,1.295,3.33,1.447,5.867L751.125,546.542z"/>
			
				<linearGradient id="SVGID_56_" gradientUnits="userSpaceOnUse" x1="1137.0264" y1="584.5869" x2="1136.9463" y2="569.8755" gradientTransform="matrix(-1 0 0 1 1773.8496 0)">
				<stop  offset="0" style="stop-color:#858585"/>
				<stop  offset="0.4049" style="stop-color:#333333"/>
				<stop  offset="0.5951" style="stop-color:#A9A9A9"/>
				<stop  offset="0.7362" style="stop-color:#F5F5F5"/>
				<stop  offset="0.8528" style="stop-color:#A6A6A6"/>
				<stop  offset="1" style="stop-color:#1A1A1A"/>
			</linearGradient>
			<path fill="url(#SVGID_56_)" d="M644.593,570.92c0.172,2.12-0.312,4.343-0.312,6.638c0,2.294,0.483,4.519,0.312,6.638
				c-2.088,1.278-4.785-0.048-7.734-0.048c-2.947,0-5.646,1.326-7.733,0.048c-0.17-2.119,0.43-4.344,0.43-6.638
				c0-2.295-0.6-4.518-0.43-6.638c2.088-1.278,4.786-0.552,7.733-0.552C639.808,570.368,642.505,569.642,644.593,570.92z"/>
		</g>
	</g>
</g>
<g display="none">
	<rect x="902.678" y="568.765" display="inline" fill="#007965" width="461.368" height="19.242"/>
	
		<linearGradient id="SVGID_57_" gradientUnits="userSpaceOnUse" x1="489.854" y1="508.8799" x2="489.854" y2="50.9416" gradientTransform="matrix(0 -1 -1 0 1415.0205 1068.2393)">
		<stop  offset="0" style="stop-color:#D1D1D1"/>
		<stop  offset="0.0388" style="stop-color:#D5D5D5"/>
		<stop  offset="0.0759" style="stop-color:#E0E0E0"/>
		<stop  offset="0.1123" style="stop-color:#F4F4F4"/>
		<stop  offset="0.1288" style="stop-color:#FFFFFF"/>
		<stop  offset="0.5031" style="stop-color:#0D0D0D"/>
		<stop  offset="0.5467" style="stop-color:#444444"/>
		<stop  offset="0.5912" style="stop-color:#757575"/>
		<stop  offset="0.6368" style="stop-color:#A0A0A0"/>
		<stop  offset="0.6829" style="stop-color:#C2C2C2"/>
		<stop  offset="0.7295" style="stop-color:#DDDDDD"/>
		<stop  offset="0.7769" style="stop-color:#F0F0F0"/>
		<stop  offset="0.8255" style="stop-color:#FBFBFB"/>
		<stop  offset="0.8773" style="stop-color:#FFFFFF"/>
		<stop  offset="1" style="stop-color:#BABABA"/>
	</linearGradient>
	<rect x="902.678" y="568.765" display="inline" fill="url(#SVGID_57_)" width="461.367" height="19.242"/>
</g>
<g display="none">
	<g display="inline">
		<path fill="#007965" d="M1128.109,582.508c0,0-28.626,29.377-33.334,33.264c-4.709,3.886-20.66,14.36-32.184,19.749
			c-15.729,7.354-32.184,13.945-32.184,13.945l-9.25-16.223c0,0,18.598-5.319,35.804-12.024c13.411-5.226,20.95-9.165,27.747-12.749
			c6.799-3.581,38.173-30.787,38.173-30.787L1128.109,582.508z"/>
		<path fill="#007965" d="M1138.872,582.058c0,0,28.289,32.284,32.966,36.529c4.68,4.246,20.609,15.597,32.177,21.344
			c15.787,7.84,32.337,14.805,32.337,14.805l9.861-18.53c0,0-18.764-5.471-36.075-12.54c-13.489-5.512-21.046-9.737-27.858-13.582
			c-6.813-3.844-38.98-33.578-38.98-33.578L1138.872,582.058z"/>
		<path fill="#007965" d="M1126.879,583.788l-65.582,7.762c0,0-18.089,0.645-24.25-2.352c-6.662-3.239-11.115-3.25-16.09-12.089
			c-2.465-4.381-3.155-11.813-2.656-17.519c0,0,1.039-7.64,1.545-6.773c0.417,0.71,1.188,6.307,2.575,9.592
			c4.509,10.673,10.983,11.765,17.329,14.396c6.459,2.677,10.117,2.724,18.646,3.133c8.531,0.409,69.544-6.13,69.544-6.13
			L1126.879,583.788z"/>
		<path fill="#007965" d="M1020.002,543.961c2.497-13.073,14.326-15.022,30.02-13.355c12.75,1.771,34.037,14.056,50.192,26.032
			c12.174,9.023,17.945,11.91,28.715,16.325l-1.095,10.31c0,0-11.047-0.319-31.411-13.568c-14.843-9.658-34.63-21.046-49.39-24.697
			c-13.762-1.462-23.164-1.156-27.271,10.001c-0.923,2.507-1.376,3.298-1.589,5.833L1020.002,543.961z"/>
		<path fill="#007965" d="M1139.486,583.911l65.327,9.259c0,0,18.04,1.062,24.27-1.792c6.735-3.086,11.17-2.996,16.347-11.719
			c2.564-4.322,3.416-11.737,3.047-17.453c0,0-0.866-7.66-1.394-6.807c-0.433,0.701-1.332,6.279-2.794,9.531
			c-4.752,10.568-11.252,11.511-17.655,13.996c-6.52,2.529-10.116,2.487-18.653,2.701c-8.538,0.214-69.325-7.721-69.325-7.721
			L1139.486,583.911z"/>
		<path fill="#007965" d="M1247.125,546.542c-2.197-13.125-13.98-15.346-29.706-14.037c-12.788,1.479-34.289,13.271-50.714,24.875
			c-12.377,8.742-18.152,11.491-29.02,15.66l0.859,10.332c0,0,10.99-0.062,31.651-12.843c15.06-9.317,35.072-20.247,49.911-23.561
			c13.794-1.147,23.17-0.626,27.02,10.622c0.865,2.527,1.295,3.33,1.447,5.867L1247.125,546.542z"/>
		<path fill="#007965" d="M1140.593,570.92c0.172,2.12-0.312,4.343-0.312,6.638c0,2.294,0.483,4.519,0.312,6.638
			c-2.088,1.278-4.785-0.048-7.734-0.048c-2.947,0-5.646,1.326-7.733,0.048c-0.17-2.119,0.43-4.344,0.43-6.638
			c0-2.295-0.6-4.518-0.43-6.638c2.088-1.278,4.786-0.552,7.733-0.552C1135.808,570.368,1138.505,569.642,1140.593,570.92z"/>
	</g>
	<g display="inline">
		
			<linearGradient id="SVGID_58_" gradientUnits="userSpaceOnUse" x1="781.6694" y1="559.5625" x2="852.863" y2="484.4911" gradientTransform="matrix(1.0569 0.2548 -0.2554 1.0592 347.0746 -149.0966)">
			<stop  offset="0" style="stop-color:#575757"/>
			<stop  offset="0.2945" style="stop-color:#C9C9C9"/>
			<stop  offset="0.5276" style="stop-color:#A9A9A9"/>
			<stop  offset="0.7055" style="stop-color:#E3E3E3"/>
			<stop  offset="1" style="stop-color:#000000"/>
		</linearGradient>
		<path fill="url(#SVGID_58_)" d="M1128.109,582.508c0,0-28.626,29.377-33.334,33.264c-4.709,3.886-20.66,14.36-32.184,19.749
			c-15.729,7.354-32.184,13.945-32.184,13.945l-9.25-16.223c0,0,18.598-5.319,35.804-12.024c13.411-5.226,20.95-9.165,27.747-12.749
			c6.799-3.581,38.173-30.787,38.173-30.787L1128.109,582.508z"/>
		
			<linearGradient id="SVGID_59_" gradientUnits="userSpaceOnUse" x1="93.498" y1="702.1572" x2="164.6917" y2="627.0858" gradientTransform="matrix(-1.0819 0.3166 0.2301 1.1858 1176.2308 -215.0394)">
			<stop  offset="0" style="stop-color:#575757"/>
			<stop  offset="0.2945" style="stop-color:#C9C9C9"/>
			<stop  offset="0.5276" style="stop-color:#A9A9A9"/>
			<stop  offset="0.7055" style="stop-color:#E3E3E3"/>
			<stop  offset="1" style="stop-color:#000000"/>
		</linearGradient>
		<path fill="url(#SVGID_59_)" d="M1138.872,582.058c0,0,28.289,32.284,32.966,36.529c4.68,4.246,20.609,15.597,32.177,21.344
			c15.787,7.84,32.337,14.805,32.337,14.805l9.861-18.53c0,0-18.764-5.471-36.075-12.54c-13.489-5.512-21.046-9.737-27.858-13.582
			c-6.813-3.844-38.98-33.578-38.98-33.578L1138.872,582.058z"/>
		
			<linearGradient id="SVGID_60_" gradientUnits="userSpaceOnUse" x1="615.1084" y1="543.3125" x2="725.6357" y2="543.3125" gradientTransform="matrix(-0.9944 -0.1056 -0.1056 0.9944 1796.1123 106.6302)">
			<stop  offset="0" style="stop-color:#0D0D0D"/>
			<stop  offset="0.4172" style="stop-color:#6E6E6E"/>
			<stop  offset="0.8405" style="stop-color:#F0F0F0"/>
			<stop  offset="0.9202" style="stop-color:#A6A6A6"/>
			<stop  offset="1" style="stop-color:#0A0A0A"/>
		</linearGradient>
		<path fill="url(#SVGID_60_)" d="M1126.879,583.788l-65.582,7.762c0,0-18.089,0.645-24.25-2.352
			c-6.662-3.239-11.115-3.25-16.09-12.089c-2.465-4.381-3.155-11.813-2.656-17.519c0,0,1.039-7.64,1.545-6.773
			c0.417,0.71,1.188,6.307,2.575,9.592c4.509,10.673,10.983,11.765,17.329,14.396c6.459,2.677,10.117,2.724,18.646,3.133
			c8.531,0.409,69.544-6.13,69.544-6.13L1126.879,583.788z"/>
		
			<linearGradient id="SVGID_61_" gradientUnits="userSpaceOnUse" x1="614.2129" y1="522.4824" x2="725.6353" y2="522.4824" gradientTransform="matrix(-0.9944 -0.1056 -0.1056 0.9944 1796.1123 106.6302)">
			<stop  offset="0" style="stop-color:#1A1A1A"/>
			<stop  offset="0.1166" style="stop-color:#5C5C5C"/>
			<stop  offset="0.5644" style="stop-color:#9E9E9E"/>
			<stop  offset="0.8589" style="stop-color:#F7F7F7"/>
			<stop  offset="0.9387" style="stop-color:#919191"/>
			<stop  offset="1" style="stop-color:#1A1A1A"/>
		</linearGradient>
		<path fill="url(#SVGID_61_)" d="M1020.002,543.961c2.497-13.073,14.326-15.022,30.02-13.355
			c12.75,1.771,34.037,14.056,50.192,26.032c12.174,9.023,17.945,11.91,28.715,16.325l-1.095,10.31c0,0-11.047-0.319-31.411-13.568
			c-14.843-9.658-34.63-21.046-49.39-24.697c-13.762-1.462-23.164-1.156-27.271,10.001c-0.923,2.507-1.376,3.298-1.589,5.833
			L1020.002,543.961z"/>
		
			<linearGradient id="SVGID_62_" gradientUnits="userSpaceOnUse" x1="1327.3848" y1="587.8525" x2="1437.7939" y2="587.8525" gradientTransform="matrix(0.9966 -0.0829 0.0829 0.9966 -232.2713 106.2505)">
			<stop  offset="0" style="stop-color:#0D0D0D"/>
			<stop  offset="0.4172" style="stop-color:#6E6E6E"/>
			<stop  offset="0.8405" style="stop-color:#F0F0F0"/>
			<stop  offset="0.9202" style="stop-color:#A6A6A6"/>
			<stop  offset="1" style="stop-color:#0A0A0A"/>
		</linearGradient>
		<path fill="url(#SVGID_62_)" d="M1139.486,583.911l65.327,9.259c0,0,18.04,1.062,24.27-1.792
			c6.735-3.086,11.17-2.996,16.347-11.719c2.564-4.322,3.416-11.737,3.047-17.453c0,0-0.866-7.66-1.394-6.807
			c-0.433,0.701-1.332,6.279-2.794,9.531c-4.752,10.568-11.252,11.511-17.655,13.996c-6.52,2.529-10.116,2.487-18.653,2.701
			c-8.538,0.214-69.325-7.721-69.325-7.721L1139.486,583.911z"/>
		
			<linearGradient id="SVGID_63_" gradientUnits="userSpaceOnUse" x1="1326.4902" y1="567.0225" x2="1437.7939" y2="567.0225" gradientTransform="matrix(0.9966 -0.0829 0.0829 0.9966 -232.2713 106.2505)">
			<stop  offset="0" style="stop-color:#1A1A1A"/>
			<stop  offset="0.1166" style="stop-color:#5C5C5C"/>
			<stop  offset="0.5644" style="stop-color:#9E9E9E"/>
			<stop  offset="0.8589" style="stop-color:#F7F7F7"/>
			<stop  offset="0.9387" style="stop-color:#919191"/>
			<stop  offset="1" style="stop-color:#1A1A1A"/>
		</linearGradient>
		<path fill="url(#SVGID_63_)" d="M1247.125,546.542c-2.197-13.125-13.98-15.346-29.706-14.037
			c-12.788,1.479-34.289,13.271-50.714,24.875c-12.377,8.742-18.152,11.491-29.02,15.66l0.859,10.332c0,0,10.99-0.062,31.651-12.843
			c15.06-9.317,35.072-20.247,49.911-23.561c13.794-1.147,23.17-0.626,27.02,10.622c0.865,2.527,1.295,3.33,1.447,5.867
			L1247.125,546.542z"/>
		
			<linearGradient id="SVGID_64_" gradientUnits="userSpaceOnUse" x1="641.0273" y1="584.5879" x2="640.9473" y2="569.8765" gradientTransform="matrix(-1 0 0 1 1773.8496 0)">
			<stop  offset="0" style="stop-color:#858585"/>
			<stop  offset="0.4049" style="stop-color:#333333"/>
			<stop  offset="0.5951" style="stop-color:#A9A9A9"/>
			<stop  offset="0.7362" style="stop-color:#F5F5F5"/>
			<stop  offset="0.8528" style="stop-color:#A6A6A6"/>
			<stop  offset="1" style="stop-color:#1A1A1A"/>
		</linearGradient>
		<path fill="url(#SVGID_64_)" d="M1140.593,570.92c0.172,2.12-0.312,4.343-0.312,6.638c0,2.294,0.483,4.519,0.312,6.638
			c-2.088,1.278-4.785-0.048-7.734-0.048c-2.947,0-5.646,1.326-7.733,0.048c-0.17-2.119,0.43-4.344,0.43-6.638
			c0-2.295-0.6-4.518-0.43-6.638c2.088-1.278,4.786-0.552,7.733-0.552C1135.808,570.368,1138.505,569.642,1140.593,570.92z"/>
	</g>
</g>
<g opacity="0.4">
	<path fill="#FFFFFF" d="M910.464,140.396l-20.504-9.165l-3.563,7.213c6.532,1.766,21.158,7.881,21.158,7.881L910.464,140.396z"/>
</g>
<g opacity="0.4">
	<path fill="#FFFFFF" d="M690.677,140.396l20.504-9.165l3.563,7.213c-6.532,1.766-21.158,7.881-21.158,7.881L690.677,140.396z"/>
</g>
</svg>
